<svg width="489" height="302" viewBox="0 0 489 302" fill="none" xmlns="http://www.w3.org/2000/svg">
<g opacity="0.5">
<g clip-path="url(#clip0_642_2145)">
<path d="M240.409 150.979C240.409 150.137 240.668 149.316 241.152 148.628C241.635 147.939 242.319 147.416 243.11 147.13C243.902 146.844 244.762 146.809 245.574 147.03C246.386 147.251 247.11 147.716 247.648 148.363C248.186 149.011 248.511 149.808 248.579 150.647C248.647 151.485 248.455 152.325 248.029 153.05C247.603 153.776 246.963 154.352 246.197 154.701C245.432 155.05 244.577 155.155 243.75 155C242.814 154.819 241.97 154.319 241.361 153.586C240.752 152.853 240.416 151.932 240.409 150.979Z" fill="#FF267E"/>
<path d="M-0.00162168 0.758319L489 0.758362L489 301.199L-0.00164795 301.199L-0.00162168 0.758319ZM487.205 2.55362L1.79364 2.55358L1.79361 299.404L487.205 299.404L487.205 2.55362Z" fill="#FF267E"/>
<path d="M488.102 280.926L488.102 282.721C485.099 282.854 482.158 283.62 479.472 284.97C473.788 287.883 470.732 293.059 470.391 300.351L468.596 300.266C469.064 290.291 474.357 285.554 478.715 283.34C481.634 281.87 484.836 281.047 488.102 280.926Z" fill="#FF267E"/>
<path d="M0.896242 280.926C4.16176 281.047 7.36294 281.87 10.2822 283.338C14.6397 285.553 19.9325 290.289 20.4009 300.264L18.6056 300.349C18.2629 293.031 15.1881 287.847 9.46614 284.939C6.79598 283.606 3.87462 282.852 0.893015 282.726L0.896242 280.926Z" fill="#FF267E"/>
<path d="M470.391 1.37199C470.732 8.66236 473.788 13.8376 479.472 16.7508C482.159 18.0983 485.1 18.8625 488.102 18.9933L488.102 20.7885C484.837 20.669 481.636 19.848 478.716 18.3812C474.359 16.1665 469.066 11.432 468.598 1.45523L470.391 1.37199Z" fill="#FF267E"/>
<path d="M18.6071 1.37193L20.4023 1.45517C19.9339 11.4319 14.6412 16.1665 10.2836 18.3812C7.36402 19.8479 4.16286 20.669 0.897703 20.7885L0.897703 18.9932C3.90038 18.8624 6.84149 18.0983 9.52801 16.7508C15.2108 13.8376 18.266 8.66393 18.6071 1.37193Z" fill="#FF267E"/>
<path d="M243.602 300.132L245.397 300.132L245.397 1.65759L243.602 1.65759L243.602 300.132Z" fill="#FF267E"/>
<path d="M244.499 104.803C255.183 104.803 265.536 108.507 273.794 115.284C282.053 122.062 287.706 131.493 289.79 141.971C291.875 152.449 290.261 163.326 285.225 172.748C280.189 182.17 272.042 189.554 262.172 193.642C252.302 197.731 241.32 198.271 231.096 195.169C220.873 192.068 212.041 185.518 206.106 176.635C200.17 167.752 197.498 157.086 198.546 146.454C199.593 135.822 204.294 125.882 211.848 118.328C216.126 114.027 221.215 110.617 226.819 108.295C232.424 105.974 238.433 104.787 244.499 104.803ZM244.499 195.359C268.97 195.359 288.88 175.448 288.88 150.979C288.88 126.509 268.969 106.598 244.499 106.598C220.03 106.598 200.119 126.509 200.119 150.979C200.119 175.448 220.028 195.359 244.499 195.359Z" fill="#FF267E"/>
<path d="M455.148 108.913L488.102 108.913L488.102 110.708L456.943 110.708L456.943 191.251L487.245 191.251L487.245 193.047L455.148 193.047L455.148 108.913Z" fill="#FF267E"/>
<path d="M415.024 69.5362L488.102 69.5362L488.102 71.3315L416.819 71.3314L416.819 230.626L488.102 230.626L488.102 232.421L415.024 232.421L415.024 69.5362Z" fill="#FF267E"/>
<path d="M415.375 119.541L416.491 120.946C407.378 128.179 402.155 139.125 402.155 150.979C402.155 162.832 407.378 173.779 416.483 181.009L415.367 182.414C410.755 178.735 407.02 174.076 404.432 168.775C401.747 163.225 400.352 157.14 400.352 150.975C400.352 144.81 401.747 138.724 404.432 133.175C407.023 127.875 410.761 123.218 415.375 119.541Z" fill="#FF267E"/>
<path d="M0.897701 108.913L33.8521 108.913L33.8521 193.047L1.75452 193.047L1.75452 191.251L32.0568 191.251L32.0568 110.708L0.897701 110.708L0.897701 108.913Z" fill="#FF267E"/>
<path d="M0.89775 69.5362L73.9761 69.5362L73.9761 232.421L0.897736 232.421L0.897736 230.626L72.1808 230.626L72.1808 71.3314L0.89775 71.3314L0.89775 69.5362Z" fill="#FF267E"/>
<path d="M73.6236 119.541C78.2316 123.22 81.9638 127.879 84.5502 133.178C87.2355 138.728 88.6304 144.813 88.6304 150.978C88.6304 157.143 87.2355 163.228 84.5502 168.778C81.9643 174.078 78.232 178.737 73.6236 182.417L72.5073 181.012C81.6206 173.779 86.8432 162.832 86.8432 150.979C86.8432 139.125 81.6206 128.179 72.5154 120.949L73.6236 119.541Z" fill="#FF267E"/>
<path d="M439.208 148.787C437.997 148.787 437.016 149.768 437.016 150.979C437.016 152.189 437.997 153.171 439.208 153.171C440.418 153.171 441.399 152.189 441.399 150.979C441.399 149.768 440.418 148.787 439.208 148.787Z" fill="#FF267E"/>
<path d="M49.7925 148.787C48.582 148.787 47.6007 149.768 47.6007 150.979C47.6007 152.189 48.582 153.171 49.7925 153.171C51.0031 153.171 51.9844 152.189 51.9844 150.979C51.9844 149.768 51.0031 148.787 49.7925 148.787Z" fill="#FF267E"/>
</g>
</g>
<g clip-path="url(#clip1_642_2145)">
<path d="M372.312 216.001C370.458 216.001 368.645 215.405 367.104 214.289C365.562 213.173 364.36 211.587 363.651 209.731C362.941 207.875 362.755 205.833 363.117 203.863C363.479 201.893 364.372 200.083 365.683 198.663C366.994 197.242 368.665 196.275 370.483 195.883C372.302 195.491 374.187 195.692 375.9 196.461C377.613 197.23 379.077 198.532 380.107 200.202C381.137 201.872 381.687 203.836 381.687 205.844C381.685 208.537 380.696 211.119 378.938 213.023C377.181 214.927 374.798 215.998 372.312 216.001ZM372.312 198.136C370.905 198.136 369.529 198.588 368.359 199.435C367.189 200.282 366.277 201.486 365.739 202.895C365.2 204.303 365.059 205.853 365.334 207.348C365.608 208.843 366.286 210.217 367.281 211.295C368.276 212.373 369.544 213.107 370.924 213.404C372.304 213.702 373.735 213.549 375.035 212.966C376.335 212.382 377.446 211.394 378.228 210.127C379.01 208.859 379.427 207.369 379.427 205.844C379.425 203.801 378.674 201.842 377.34 200.397C376.007 198.952 374.198 198.139 372.312 198.136Z" fill="#FF267E"/>
</g>
<path fill-rule="evenodd" clip-rule="evenodd" d="M424.804 204.826C425.046 205.068 425.373 205.204 425.714 205.204V205.195C425.968 205.195 426.217 205.119 426.428 204.977C426.64 204.834 426.805 204.632 426.902 204.396C427 204.16 427.025 203.9 426.975 203.649C426.926 203.398 426.803 203.168 426.624 202.987L419.125 195.45L426.439 188.099C426.677 187.856 426.81 187.528 426.808 187.186C426.807 186.845 426.671 186.518 426.431 186.277C426.19 186.035 425.865 185.899 425.525 185.898C425.186 185.897 424.859 186.031 424.617 186.27L417.304 193.62L409.983 186.262C409.864 186.14 409.722 186.043 409.565 185.976C409.409 185.91 409.241 185.875 409.071 185.875C408.901 185.874 408.732 185.907 408.575 185.972C408.418 186.037 408.275 186.132 408.155 186.253C408.035 186.374 407.939 186.517 407.875 186.675C407.81 186.833 407.777 187.002 407.777 187.173C407.778 187.344 407.812 187.513 407.878 187.67C407.944 187.828 408.04 187.971 408.161 188.09L415.482 195.452L407.977 202.995C407.797 203.176 407.674 203.407 407.625 203.658C407.575 203.909 407.601 204.169 407.698 204.405C407.795 204.641 407.96 204.843 408.172 204.985C408.383 205.128 408.632 205.204 408.886 205.204C409.227 205.204 409.555 205.068 409.796 204.826L417.302 197.282L424.804 204.826Z" fill="#FF267E"/>
<path fill-rule="evenodd" clip-rule="evenodd" d="M399.174 176.56C399.416 176.793 399.743 176.924 400.084 176.924V176.915C400.338 176.915 400.587 176.842 400.799 176.705C401.01 176.568 401.175 176.373 401.272 176.145C401.37 175.917 401.395 175.666 401.346 175.425C401.296 175.183 401.174 174.96 400.994 174.786L393.495 167.519L400.809 160.43C401.047 160.196 401.18 159.879 401.178 159.55C401.177 159.221 401.041 158.906 400.801 158.673C400.56 158.44 400.235 158.309 399.895 158.308C399.556 158.307 399.229 158.436 398.987 158.667L391.675 165.754L384.353 158.658C384.234 158.541 384.092 158.447 383.936 158.383C383.779 158.319 383.611 158.286 383.441 158.285C383.271 158.284 383.103 158.316 382.945 158.379C382.788 158.441 382.645 158.534 382.525 158.65C382.405 158.766 382.31 158.905 382.245 159.057C382.18 159.209 382.147 159.372 382.147 159.537C382.148 159.702 382.182 159.865 382.248 160.017C382.314 160.168 382.41 160.306 382.531 160.422L389.852 167.52L382.347 174.795C382.167 174.969 382.044 175.191 381.995 175.433C381.945 175.675 381.971 175.926 382.068 176.154C382.166 176.382 382.33 176.576 382.542 176.714C382.753 176.851 383.002 176.924 383.257 176.924C383.598 176.924 383.925 176.794 384.166 176.56L391.672 169.286L399.174 176.56Z" fill="#FF267E"/>
<path fill-rule="evenodd" clip-rule="evenodd" d="M350.826 86.6597C351.333 87.1383 351.352 87.9328 350.868 88.4343C350.209 89.1168 349.565 89.8081 348.934 90.5077C348.467 91.025 347.665 91.0703 347.142 90.6089C346.619 90.1475 346.573 89.3541 347.04 88.8368C347.69 88.1161 348.354 87.404 349.032 86.7012C349.516 86.1997 350.319 86.1811 350.826 86.6597ZM345.062 93.0799C345.616 93.5049 345.716 94.2933 345.287 94.841C344.115 96.3348 343.004 97.8597 341.954 99.412C341.564 99.9881 340.776 100.143 340.194 99.7573C339.611 99.3719 339.455 98.5923 339.844 98.0162C340.928 96.4147 342.074 94.8422 343.282 93.3022C343.711 92.7545 344.509 92.655 345.062 93.0799ZM338.484 102.492C339.093 102.835 339.306 103.601 338.959 104.204C338.015 105.845 337.138 107.51 336.329 109.197C336.029 109.823 335.272 110.09 334.639 109.793C334.005 109.496 333.736 108.747 334.036 108.121C334.872 106.378 335.779 104.657 336.754 102.962C337.1 102.36 337.875 102.149 338.484 102.492ZM333.358 112.749C334.013 112.997 334.34 113.723 334.089 114.37C333.408 116.13 332.8 117.907 332.267 119.697C332.069 120.362 331.364 120.743 330.692 120.547C330.019 120.352 329.635 119.654 329.832 118.989C330.384 117.134 331.014 115.293 331.719 113.472C331.97 112.825 332.704 112.501 333.358 112.749ZM329.903 123.667C330.589 123.807 331.031 124.471 330.889 125.149C330.506 126.989 330.202 128.839 329.981 130.693C329.899 131.381 329.268 131.874 328.572 131.792C327.876 131.711 327.378 131.087 327.461 130.399C327.691 128.472 328.006 126.552 328.404 124.643C328.545 123.964 329.216 123.527 329.903 123.667ZM328.333 134.999C329.033 135.019 329.584 135.597 329.564 136.29C329.537 137.225 329.531 138.161 329.546 139.096M328.333 134.999C327.632 134.979 327.048 135.525 327.027 136.218L328.333 134.999ZM327.027 136.218C326.999 137.19 326.993 138.164 327.009 139.137L327.027 136.218ZM329.546 139.096C329.564 140.195 329.612 141.293 329.689 142.39C329.738 143.081 329.21 143.681 328.511 143.729C327.812 143.777 327.206 143.255 327.158 142.564C327.078 141.423 327.028 140.281 327.009 139.137L327.009 139.137M329.028 147.916C329.718 147.797 330.375 148.254 330.496 148.937C330.877 151.098 331.369 153.246 331.971 155.373C332.159 156.04 331.765 156.733 331.09 156.92C330.415 157.106 329.715 156.716 329.526 156.049C328.903 153.842 328.391 151.613 327.996 149.368C327.875 148.685 328.337 148.035 329.028 147.916ZM332.436 160.922C333.09 160.672 333.825 160.993 334.077 161.64C334.876 163.684 335.777 165.701 336.775 167.686C337.087 168.306 336.832 169.06 336.205 169.369C335.577 169.677 334.816 169.425 334.503 168.804C333.47 166.751 332.538 164.662 331.71 162.545C331.458 161.898 331.783 161.172 332.436 160.922ZM338.275 173.056C338.872 172.693 339.654 172.877 340.021 173.467C341.181 175.334 342.432 177.162 343.77 178.947C344.188 179.504 344.07 180.29 343.507 180.703C342.944 181.116 342.149 180.999 341.732 180.443C340.35 178.6 339.058 176.711 337.859 174.782C337.492 174.192 337.678 173.419 338.275 173.056ZM346.19 183.982C346.715 183.524 347.517 183.574 347.98 184.094C348.715 184.919 349.47 185.733 350.245 186.534C350.73 187.035 350.712 187.829 350.205 188.309C349.699 188.788 348.896 188.77 348.411 188.269C347.613 187.443 346.834 186.605 346.076 185.753C345.613 185.233 345.664 184.44 346.19 183.982Z" fill="#FF267E"/>
<path fill-rule="evenodd" clip-rule="evenodd" d="M369.453 70.1496C368.376 69.1454 366.946 68.609 365.475 68.6578C364.379 68.6968 363.319 69.0597 362.429 69.7007C361.539 70.342 360.859 71.2327 360.475 72.2604C360.091 73.2881 360.02 74.4066 360.271 75.4745C360.523 76.5424 361.085 77.5118 361.887 78.2602C362.689 79.0086 363.696 79.5023 364.778 79.679C365.861 79.8557 366.972 79.7074 367.97 79.2529C368.969 78.7985 369.81 78.0581 370.388 77.1255C370.966 76.1933 371.254 75.1108 371.217 74.0148C371.164 72.5437 370.529 71.1537 369.453 70.1496ZM365.385 66.0045C367.559 65.9319 369.673 66.7244 371.264 68.2083C372.854 69.6922 373.792 71.7464 373.87 73.9204L373.87 73.9229C373.926 75.544 373.499 77.1452 372.645 78.524C371.79 79.9027 370.546 80.9973 369.07 81.6692C367.594 82.3412 365.952 82.5604 364.351 82.2992C362.75 82.0379 361.262 81.3079 360.076 80.2015C358.89 79.095 358.059 77.6618 357.687 76.0829C357.315 74.504 357.42 72.8504 357.988 71.331C358.556 69.8116 359.561 68.4946 360.877 67.5466C362.193 66.5985 363.761 66.0619 365.382 66.0046L365.385 66.0045Z" fill="#FF267E"/>
<g clip-path="url(#clip2_642_2145)">
<path d="M92.5556 245.561C90.4678 245.561 88.4269 244.942 86.691 243.782C84.9551 242.622 83.602 240.974 82.8031 239.045C82.0041 237.116 81.795 234.994 82.2023 232.946C82.6096 230.898 83.6151 229.017 85.0914 227.541C86.5677 226.065 88.4486 225.059 90.4963 224.652C92.5439 224.245 94.6663 224.454 96.5952 225.253C98.5241 226.052 100.173 227.405 101.333 229.141C102.493 230.877 103.112 232.918 103.112 235.005C103.109 237.804 101.996 240.487 100.017 242.467C98.0377 244.446 95.3544 245.559 92.5556 245.561ZM92.5556 226.994C90.9711 226.994 89.4222 227.464 88.1047 228.344C86.7873 229.224 85.7604 230.476 85.154 231.94C84.5476 233.403 84.389 235.014 84.6981 236.568C85.0072 238.122 85.7703 239.55 86.8907 240.67C88.0111 241.791 89.4386 242.554 90.9926 242.863C92.5467 243.172 94.1576 243.013 95.6215 242.407C97.0854 241.801 98.3366 240.774 99.2169 239.456C100.097 238.139 100.567 236.59 100.567 235.005C100.564 232.881 99.7192 230.845 98.2174 229.344C96.7156 227.842 94.6795 226.997 92.5556 226.994Z" fill="#FF267E"/>
</g>
<g clip-path="url(#clip3_642_2145)">
<path d="M145.892 141.112C143.804 141.112 141.763 140.493 140.027 139.333C138.291 138.173 136.938 136.524 136.139 134.596C135.34 132.667 135.131 130.544 135.538 128.497C135.946 126.449 136.951 124.568 138.427 123.092C139.904 121.615 141.785 120.61 143.832 120.203C145.88 119.795 148.002 120.004 149.931 120.803C151.86 121.602 153.509 122.955 154.669 124.691C155.829 126.427 156.448 128.468 156.448 130.556C156.445 133.355 155.332 136.038 153.353 138.017C151.374 139.996 148.69 141.109 145.892 141.112ZM145.892 122.545C144.307 122.545 142.758 123.014 141.441 123.895C140.123 124.775 139.096 126.026 138.49 127.49C137.884 128.954 137.725 130.565 138.034 132.119C138.343 133.673 139.106 135.1 140.227 136.221C141.347 137.341 142.775 138.104 144.329 138.413C145.883 138.723 147.494 138.564 148.957 137.958C150.421 137.351 151.673 136.324 152.553 135.007C153.433 133.689 153.903 132.14 153.903 130.556C153.9 128.432 153.055 126.396 151.553 124.894C150.052 123.392 148.015 122.547 145.892 122.545Z" fill="#FF267E"/>
</g>
<path fill-rule="evenodd" clip-rule="evenodd" d="M139.676 199.244C139.955 199.514 140.333 199.665 140.728 199.665V199.655C141.022 199.655 141.31 199.57 141.554 199.412C141.799 199.253 141.99 199.027 142.102 198.763C142.215 198.499 142.244 198.209 142.187 197.929C142.13 197.649 141.988 197.392 141.78 197.189L133.108 188.774L141.567 180.566C141.842 180.294 141.995 179.927 141.994 179.546C141.992 179.165 141.835 178.8 141.557 178.531C141.279 178.261 140.903 178.109 140.51 178.108C140.117 178.107 139.74 178.256 139.46 178.523L131.002 186.731L122.535 178.514C122.397 178.378 122.233 178.269 122.052 178.195C121.871 178.121 121.677 178.082 121.48 178.082C121.283 178.081 121.089 178.118 120.907 178.19C120.725 178.263 120.56 178.369 120.421 178.504C120.282 178.639 120.172 178.799 120.097 178.975C120.022 179.152 119.983 179.341 119.984 179.532C119.985 179.722 120.024 179.911 120.101 180.087C120.177 180.263 120.288 180.422 120.428 180.556L128.895 188.776L120.215 197.199C120.007 197.401 119.865 197.659 119.808 197.939C119.75 198.219 119.78 198.509 119.893 198.773C120.005 199.037 120.196 199.263 120.44 199.421C120.685 199.58 120.973 199.665 121.267 199.665C121.661 199.666 122.04 199.514 122.319 199.244L131 190.82L139.676 199.244Z" fill="#FF267E"/>
<path fill-rule="evenodd" clip-rule="evenodd" d="M251.904 162.274C252.183 162.544 252.562 162.696 252.956 162.696V162.686C253.25 162.686 253.538 162.601 253.782 162.442C254.027 162.283 254.218 162.058 254.33 161.794C254.443 161.53 254.472 161.24 254.415 160.959C254.358 160.679 254.216 160.422 254.008 160.22L245.336 151.804L253.795 143.596C254.07 143.324 254.224 142.958 254.222 142.577C254.22 142.195 254.063 141.83 253.785 141.561C253.507 141.292 253.131 141.14 252.738 141.138C252.345 141.137 251.968 141.286 251.688 141.554L243.231 149.761L234.763 141.544C234.625 141.408 234.461 141.3 234.28 141.226C234.099 141.152 233.905 141.113 233.708 141.112C233.511 141.111 233.317 141.148 233.135 141.221C232.953 141.293 232.788 141.4 232.649 141.535C232.51 141.669 232.4 141.83 232.325 142.006C232.25 142.182 232.211 142.371 232.212 142.562C232.213 142.753 232.252 142.941 232.329 143.117C232.405 143.293 232.516 143.453 232.656 143.586L241.123 151.807L232.443 160.23C232.235 160.432 232.093 160.689 232.036 160.969C231.978 161.249 232.008 161.54 232.121 161.804C232.233 162.067 232.424 162.293 232.668 162.452C232.913 162.611 233.201 162.695 233.495 162.696C233.889 162.696 234.268 162.544 234.547 162.274L243.228 153.85L251.904 162.274Z" fill="#FF267E"/>
<path fill-rule="evenodd" clip-rule="evenodd" d="M277.46 198.943C277.74 199.213 278.118 199.364 278.513 199.364V199.354C278.807 199.354 279.094 199.269 279.339 199.11C279.584 198.952 279.774 198.726 279.887 198.462C280 198.198 280.029 197.908 279.972 197.628C279.914 197.348 279.773 197.09 279.565 196.888L270.893 188.473L279.351 180.265C279.627 179.993 279.78 179.626 279.778 179.245C279.777 178.864 279.62 178.499 279.342 178.229C279.064 177.96 278.687 177.808 278.295 177.807C277.902 177.806 277.524 177.955 277.244 178.222L268.787 186.43L260.32 178.213C260.182 178.077 260.018 177.968 259.837 177.894C259.656 177.82 259.461 177.781 259.265 177.78C259.068 177.78 258.873 177.816 258.692 177.889C258.51 177.962 258.345 178.068 258.205 178.203C258.066 178.338 257.956 178.498 257.881 178.674C257.806 178.851 257.768 179.04 257.769 179.23C257.769 179.421 257.809 179.61 257.885 179.786C257.961 179.961 258.073 180.121 258.213 180.255L266.679 188.475L257.999 196.898C257.791 197.1 257.65 197.358 257.592 197.638C257.535 197.918 257.565 198.208 257.677 198.472C257.79 198.736 257.981 198.961 258.225 199.12C258.47 199.279 258.757 199.364 259.052 199.364C259.446 199.364 259.825 199.213 260.104 198.943L268.784 190.519L277.46 198.943Z" fill="#FF267E"/>
<path fill-rule="evenodd" clip-rule="evenodd" d="M184.726 253.414C184.814 254.021 185.378 254.442 185.985 254.354C186.848 254.23 187.706 254.088 188.561 253.93C189.164 253.819 189.563 253.239 189.451 252.635C189.34 252.032 188.76 251.633 188.157 251.745C187.331 251.898 186.501 252.034 185.667 252.155C185.06 252.243 184.638 252.806 184.726 253.414ZM192.292 251.993C192.451 252.586 193.06 252.938 193.653 252.779C195.337 252.328 197 251.812 198.638 251.232C199.217 251.027 199.52 250.392 199.315 249.813C199.11 249.235 198.475 248.932 197.897 249.137C196.313 249.698 194.706 250.197 193.078 250.633C192.485 250.791 192.133 251.401 192.292 251.993ZM202.02 248.734C202.27 249.295 202.926 249.547 203.487 249.297C205.077 248.589 206.639 247.818 208.168 246.987C208.708 246.694 208.907 246.02 208.614 245.481C208.321 244.941 207.647 244.742 207.108 245.035C205.629 245.838 204.12 246.583 202.583 247.267C202.022 247.517 201.77 248.174 202.02 248.734ZM211.117 243.991C211.451 244.505 212.139 244.651 212.654 244.317C214.111 243.37 215.533 242.364 216.916 241.302C217.402 240.928 217.494 240.23 217.12 239.744C216.746 239.257 216.048 239.166 215.562 239.54C214.225 240.566 212.851 241.538 211.443 242.453C210.928 242.788 210.782 243.476 211.117 243.991ZM219.358 237.88C219.769 238.336 220.471 238.372 220.927 237.961C221.572 237.379 222.207 236.784 222.831 236.175L222.841 236.166L222.841 236.165C223.465 235.542 224.075 234.904 224.671 234.254C225.085 233.801 225.055 233.098 224.602 232.684C224.15 232.269 223.447 232.3 223.032 232.752C222.459 233.377 221.873 233.99 221.274 234.589C220.673 235.176 220.061 235.75 219.439 236.311C218.983 236.722 218.947 237.424 219.358 237.88ZM226.515 230.406C227.001 230.781 227.699 230.69 228.073 230.204C229.147 228.809 230.163 227.368 231.12 225.883C231.453 225.367 231.304 224.68 230.789 224.347C230.273 224.014 229.585 224.163 229.253 224.679C228.328 226.112 227.348 227.503 226.312 228.848C225.938 229.334 226.029 230.032 226.515 230.406ZM232.297 221.784C232.838 222.074 233.512 221.87 233.802 221.33C234.631 219.783 235.401 218.198 236.112 216.58C236.358 216.018 236.103 215.362 235.541 215.115C234.979 214.869 234.323 215.124 234.077 215.686C233.389 217.252 232.644 218.785 231.843 220.28C231.553 220.821 231.757 221.494 232.297 221.784ZM236.631 212.348C237.21 212.551 237.844 212.246 238.047 211.667C238.627 210.015 239.148 208.333 239.608 206.626C239.768 206.034 239.417 205.424 238.825 205.264C238.232 205.104 237.622 205.455 237.463 206.048C237.016 207.702 236.512 209.331 235.95 210.932C235.747 211.511 236.052 212.145 236.631 212.348ZM239.494 202.367C240.097 202.483 240.68 202.089 240.796 201.487C241.128 199.77 241.402 198.032 241.614 196.277C241.688 195.668 241.254 195.114 240.645 195.041C240.035 194.967 239.482 195.401 239.408 196.01C239.202 197.713 238.937 199.399 238.614 201.065C238.498 201.667 238.892 202.25 239.494 202.367ZM240.9 192.078C241.512 192.109 242.035 191.638 242.066 191.025C242.111 190.15 242.142 189.271 242.157 188.39C242.167 187.776 241.679 187.27 241.065 187.26C240.451 187.249 239.945 187.738 239.935 188.351C239.92 189.208 239.891 190.061 239.847 190.911C239.815 191.524 240.287 192.046 240.9 192.078Z" fill="#FF267E"/>
<path d="M179.375 248.407L169.782 253.962L179.383 259.493L179.375 248.407Z" fill="#FF267E"/>
<defs>
<clipPath id="clip0_642_2145">
<rect width="489" height="300.441" fill="white" transform="translate(489 301.199) rotate(-180)"/>
</clipPath>
<clipPath id="clip1_642_2145">
<rect width="18.7501" height="20.3126" fill="white" transform="translate(362.938 195.688)"/>
</clipPath>
<clipPath id="clip2_642_2145">
<rect width="21.1121" height="21.1121" fill="white" transform="translate(82 224.449)"/>
</clipPath>
<clipPath id="clip3_642_2145">
<rect width="21.1121" height="21.1121" fill="white" transform="translate(135.336 120)"/>
</clipPath>
</defs>
</svg>
