<svg width="455" height="455" viewBox="0 0 455 455" fill="none" xmlns="http://www.w3.org/2000/svg">
<g opacity="0.5">
<path d="M224.816 224.816C225.3 224.331 225.922 224.008 226.596 223.89C227.271 223.771 227.965 223.864 228.585 224.155C229.205 224.446 229.721 224.921 230.061 225.515C230.401 226.11 230.55 226.794 230.487 227.476C230.424 228.158 230.152 228.804 229.709 229.326C229.265 229.848 228.672 230.221 228.009 230.393C227.346 230.565 226.646 230.529 226.005 230.289C225.363 230.049 224.811 229.617 224.424 229.053C223.99 228.41 223.792 227.636 223.863 226.864C223.934 226.092 224.271 225.368 224.816 224.816Z" fill="#FF267E"/>
<path d="M172.909 -5.53236e-05L454.339 281.429L281.43 454.339L-3.92302e-06 172.909L172.909 -5.53236e-05ZM452.272 281.429L172.909 2.06636L2.06641 172.909L281.43 452.272L452.272 281.429Z" fill="#FF267E"/>
<path d="M292.581 442.154L291.547 443.188C289.743 441.536 287.609 440.284 285.286 439.515C280.338 437.92 275.601 439.14 271.208 443.141L270.224 442.059C276.234 436.587 282.006 436.908 285.789 438.141C288.315 438.976 290.631 440.345 292.581 442.154Z" fill="#FF267E"/>
<path d="M12.1843 161.758C13.994 163.707 15.3629 166.023 16.1978 168.548C17.4311 172.331 17.7514 178.103 12.2801 184.113L11.1981 183.129C15.2125 178.72 16.4261 173.967 14.8068 169C14.0371 166.696 12.7898 164.581 11.1464 162.792L12.1843 161.758Z" fill="#FF267E"/>
<path d="M443.276 271.073C439.277 275.465 438.056 280.202 439.651 285.15C440.422 287.472 441.675 289.604 443.328 291.407L442.294 292.441C440.484 290.493 439.114 288.178 438.278 285.653C437.045 281.871 436.724 276.1 442.196 270.089L443.276 271.073Z" fill="#FF267E"/>
<path d="M183.266 11.0627L184.251 12.1438C178.24 17.6161 172.469 17.2948 168.686 16.0616C166.162 15.2254 163.847 13.8556 161.899 12.0452L162.932 11.012C164.736 12.6649 166.868 13.9177 169.19 14.6884C174.137 16.2823 178.873 15.0631 183.266 11.0627Z" fill="#FF267E"/>
<path d="M140.812 312.493L141.846 313.526L313.623 141.749L312.59 140.716L140.812 312.493Z" fill="#FF267E"/>
<path d="M253.744 200.594C259.893 206.743 263.72 214.833 264.572 223.486C265.425 232.14 263.25 240.821 258.42 248.051C253.589 255.281 246.401 260.612 238.08 263.136C229.759 265.661 220.82 265.222 212.787 261.894C204.753 258.567 198.122 252.557 194.023 244.888C189.924 237.22 188.611 228.367 190.307 219.839C192.004 211.311 196.605 203.634 203.326 198.118C210.048 192.602 218.474 189.587 227.169 189.587C232.107 189.574 236.998 190.539 241.559 192.429C246.121 194.318 250.263 197.094 253.744 200.594ZM201.628 252.711C215.711 266.795 238.629 266.794 252.711 252.711C266.794 238.629 266.794 215.71 252.711 201.628C238.629 187.545 215.71 187.545 201.628 201.628C187.545 215.71 187.544 238.628 201.628 252.711Z" fill="#FF267E"/>
<path d="M372.612 324.192L391.577 343.158L390.544 344.191L372.612 326.258L326.257 372.612L343.697 390.052L342.664 391.085L324.191 372.612L372.612 324.192Z" fill="#FF267E"/>
<path d="M372.181 278.438L414.239 320.496L413.206 321.529L372.181 280.504L280.504 372.181L321.529 413.206L320.496 414.239L278.438 372.181L372.181 278.438Z" fill="#FF267E"/>
<path d="M343.605 307.418L343.439 308.869C334.031 307.787 324.725 311.081 317.903 317.903C311.081 324.725 307.787 334.031 308.867 343.432L307.416 343.598C306.879 338.827 307.411 333.996 308.972 329.456C310.62 324.716 313.32 320.411 316.868 316.863C320.416 313.315 324.721 310.616 329.46 308.967C334.002 307.408 338.833 306.879 343.605 307.418Z" fill="#FF267E"/>
<path d="M111.182 62.7623L130.148 81.7281L81.7274 130.149L63.2546 111.676L64.2878 110.643L81.7274 128.082L128.082 81.7281L110.149 63.7955L111.182 62.7623Z" fill="#FF267E"/>
<path d="M133.844 40.1005L175.902 82.1584L82.1585 175.902L40.1006 133.844L41.1338 132.811L82.1585 173.835L173.836 82.1584L132.811 41.1337L133.844 40.1005Z" fill="#FF267E"/>
<path d="M146.921 110.734C147.455 115.504 146.922 120.333 145.36 124.871C143.712 129.61 141.013 133.915 137.464 137.463C133.916 141.012 129.611 143.711 124.872 145.359C120.333 146.922 115.504 147.455 110.734 146.92L110.9 145.469C120.308 146.551 129.613 143.257 136.435 136.435C143.257 129.613 146.551 120.308 145.472 110.907L146.921 110.734Z" fill="#FF267E"/>
<path d="M340.489 337.966C339.793 337.27 338.663 337.27 337.966 337.966C337.27 338.663 337.27 339.793 337.966 340.489C338.663 341.186 339.793 341.186 340.489 340.489C341.186 339.793 341.186 338.663 340.489 337.966Z" fill="#FF267E"/>
<path d="M116.373 113.85C115.677 113.154 114.547 113.154 113.851 113.85C113.154 114.547 113.154 115.677 113.851 116.373C114.547 117.07 115.677 117.07 116.373 116.373C117.07 115.677 117.07 114.547 116.373 113.85Z" fill="#FF267E"/>
</g>
</svg>
