<svg width="190" height="181" viewBox="0 0 190 181" fill="none" xmlns="http://www.w3.org/2000/svg">
<path d="M89.6445 116.869L177.769 116.869L177.769 2.03976L89.6445 2.03977" stroke="#FF267E" stroke-width="3"/>
<path d="M89.6445 90.3964L152.845 90.3964L152.845 28.0858L89.6445 28.0858" stroke="#FF267E" stroke-width="3"/>
<rect x="118.656" y="106.677" width="2.71785" height="2.71785" transform="rotate(-90 118.656 106.677)" fill="#FF267E"/>
<rect x="162.637" y="61.959" width="2.71785" height="2.71785" transform="rotate(-90 162.637 61.959)" fill="#FF267E"/>
<path d="M177.91 36.893C184.348 42.0325 188.5 50.0695 188.5 59.1148C188.5 68.16 184.348 76.197 177.91 81.3365L177.91 36.893Z" stroke="#FF267E" stroke-width="3"/>
<g clip-path="url(#clip0_642_2253)">
<path d="M152.769 85.2776L152.774 85.2839C153.503 86.1248 154.233 86.9949 154.968 87.8788C149.698 93.7834 146.992 96.8155 145.121 98.911C142.029 102.376 141.221 103.281 134.883 110.38C134.221 109.83 133.779 109.471 133.342 109.116C133.025 108.858 132.71 108.603 132.316 108.278C130.971 107.153 128.612 105.229 122.014 99.8732L119.528 97.8553L119.569 101.057L120.528 176.715L120.563 179.447H78.4733H36.3841L36.4184 176.715L37.378 101.057L37.4186 97.8553L34.9327 99.8732C30.8374 103.198 28.4094 105.188 26.8238 106.488C25.8403 107.295 25.1809 107.836 24.6486 108.264L24.6421 108.269L24.6357 108.274C24.2194 108.617 23.897 108.885 23.5762 109.151C23.1466 109.508 22.7199 109.863 22.0741 110.392C15.7148 103.269 14.917 102.375 11.8085 98.892C9.94081 96.7994 7.23896 93.7721 1.99542 87.8974C2.28311 87.5609 2.57218 87.2206 2.85721 86.885C3.33296 86.3249 3.79747 85.778 4.22563 85.2839L4.23107 85.2775C26.6686 59.0913 36.0129 50.5246 51.1106 44.1929C52.3854 43.6755 53.7478 43.1568 55.1345 42.6322C70.6397 47.0314 88.1279 46.5239 101.873 42.6301C103.278 43.1501 104.603 43.6708 105.889 44.1929C120.987 50.5246 130.331 59.0912 152.769 85.2776Z" fill="#00003D" stroke="#FF267E" stroke-width="3"/>
<path d="M35.9315 101.091L47.7665 91.8993C47.7665 91.8993 35.7183 104.651 35.7183 114.321L35.9315 101.091Z" fill="#00003D"/>
<path d="M121.122 101.091L109.287 91.8993C109.287 91.8993 121.335 104.651 121.335 114.321L121.122 101.091Z" fill="#00003D"/>
<path d="M101.93 40.9999C88.2294 44.9847 70.5836 45.516 55.0702 40.9999C53.2576 49.5008 65.9456 58.2674 78.4736 58.9581C91.0549 58.2674 103.743 49.5008 101.93 40.9999Z" fill="#00003D"/>
<path d="M55.7629 51.2541C56.456 51.998 57.2023 52.7418 58.002 53.3794C63.493 58.0549 70.7966 60.6583 78.5266 60.6583C86.2566 60.6583 93.5602 58.0549 99.0512 53.3794C99.8509 52.6887 100.597 51.998 101.29 51.2541C102.943 49.5008 104.329 47.535 105.342 45.4097C105.768 44.5597 106.142 43.6564 106.461 42.7532C105.022 42.1688 103.529 41.5843 101.93 40.9999C101.663 41.6374 96.9721 55.8234 78.5266 55.8234C60.0811 55.8234 55.3898 41.6374 55.1232 40.9999C53.5772 41.5843 52.0312 42.1688 50.5918 42.7532C50.9117 43.6564 51.2848 44.5597 51.7113 45.4097C52.7242 47.535 54.1103 49.5008 55.7629 51.2541Z" fill="#FF267E"/>
<path d="M34.9185 176.749V181H78.5266H122.135V176.749H78.5266H34.9185Z" fill="#FF267E"/>
<path d="M0 87.9145C15.4601 105.235 10.289 99.444 21.9107 112.461C23.9365 110.814 24.363 110.442 25.5891 109.433L3.09202 84.3016C2.07912 85.4705 1.06621 86.6925 0 87.9145Z" fill="#FF267E"/>
<path d="M153.908 84.3016L131.411 109.486C132.637 110.495 133.063 110.814 135.089 112.514C146.711 99.4971 141.54 105.288 157 87.9677C155.934 86.6925 154.921 85.4705 153.908 84.3016Z" fill="#FF267E"/>
</g>
<path d="M76.58 129H84.17V89.1249H78.395C76.47 93.4699 73.775 93.8549 68 94.0199V99.1899H76.58V129Z" fill="#E8E8E8"/>
<defs>
<clipPath id="clip0_642_2253">
<rect width="157" height="140" fill="white" transform="translate(0 40.9999)"/>
</clipPath>
</defs>
</svg>
