<svg width="204" height="128" viewBox="0 0 204 128" fill="none" xmlns="http://www.w3.org/2000/svg">
<g clip-path="url(#clip0_642_2069)">
<path d="M195.495 54.4909C195.02 54.3625 194.52 54.3531 194.042 54.4637C193.563 54.5742 193.12 54.8012 192.752 55.1242C192.474 55.3668 172.72 72.3992 140.019 82.5812C109.863 91.971 62.1485 97.3122 6.09734 69.3117C5.39065 68.9586 4.57275 68.8983 3.82362 69.144C3.0745 69.3897 2.45551 69.9214 2.10277 70.6219C1.75004 71.3225 1.69243 72.1346 1.94272 72.8797C2.193 73.6247 2.73068 74.2417 3.43737 74.5948C29.0097 87.3537 55.0728 94.5152 80.9064 95.8809C101.612 96.9746 122.333 94.3556 142.076 88.1491C175.967 77.5408 195.874 60.2935 196.7 59.5749C197.102 59.222 197.401 58.7668 197.563 58.258C197.725 57.7492 197.746 57.2056 197.622 56.6852C197.498 56.1647 197.234 55.6868 196.859 55.3023C196.484 54.9177 196.012 54.6409 195.492 54.5013L195.495 54.4909Z" fill="#FF267E"/>
<path d="M165.825 57.8817C176.832 56.0921 188.023 53.3619 197.986 48.2894C200.284 47.1197 203.671 49.1229 202.714 51.8978C198.457 64.3206 192.976 76.2915 186.35 87.6369C184.277 91.1915 178.704 87.9519 180.786 84.3883C187.14 73.5431 192.402 62.0984 196.494 50.2199L201.222 53.8284C190.748 59.1535 179.111 62.1647 167.542 64.0481C163.485 64.713 161.731 58.5367 165.833 57.8726L165.825 57.8817Z" fill="#FF267E"/>
</g>
<defs>
<clipPath id="clip0_642_2069">
<rect width="189" height="81" fill="white" transform="matrix(0.965926 0.258819 0.258819 -0.965926 0 78.24)"/>
</clipPath>
</defs>
</svg>
