<svg width="90" height="90" viewBox="0 0 90 90" fill="none" xmlns="http://www.w3.org/2000/svg">
<circle cx="45" cy="45" r="45" fill="#00003D"/>
<mask id="mask0_642_2316" style="mask-type:luminance" maskUnits="userSpaceOnUse" x="19" y="18" width="53" height="54">
<path d="M19.125 18.6114H71.5639V71.0503H19.125V18.6114Z" fill="white"/>
</mask>
<g mask="url(#mask0_642_2316)">
<path d="M39.5974 44.8308H25.6401V34.1578C25.6401 33.7042 26.0077 33.3367 26.4611 33.3367H64.2276C64.6811 33.3367 65.0487 33.7042 65.0487 34.1578V44.8308H47.8074" stroke="white" stroke-width="1.7234" stroke-miterlimit="10" stroke-linecap="round" stroke-linejoin="round"/>
<path d="M63.4067 44.8308V69.4611C63.4067 69.9145 63.0391 70.2821 62.5857 70.2821H28.1032C27.6498 70.2821 27.2822 69.9145 27.2822 69.4611V44.8308" stroke="white" stroke-width="1.7234" stroke-miterlimit="10" stroke-linecap="round" stroke-linejoin="round"/>
<path d="M42.8813 33.3367V70.2821" stroke="white" stroke-width="1.7234" stroke-miterlimit="10" stroke-linecap="round" stroke-linejoin="round"/>
<path d="M47.8076 33.3367V70.2821" stroke="white" stroke-width="1.7234" stroke-miterlimit="10" stroke-linecap="round" stroke-linejoin="round"/>
<path d="M49.4493 33.3368C49.4493 31.523 47.9791 30.0527 46.1653 30.0527H44.5232C42.7095 30.0527 41.2393 31.523 41.2393 33.3368" stroke="white" stroke-width="1.7234" stroke-miterlimit="10" stroke-linecap="round" stroke-linejoin="round"/>
<path d="M41.2399 32.0889L32.528 26.545C31.1987 25.699 30.9946 23.8396 32.1088 22.7254L34.733 20.1012C35.8472 18.9869 37.7065 19.1911 38.5525 20.5204L44.5233 29.903" stroke="white" stroke-width="1.7234" stroke-miterlimit="10" stroke-linecap="round" stroke-linejoin="round"/>
<path d="M37.4849 25.4771L42.4692 30.4614" stroke="white" stroke-width="1.7234" stroke-miterlimit="10" stroke-linecap="round" stroke-linejoin="round"/>
<path d="M49.4491 32.0889L58.161 26.545C59.4903 25.699 59.6945 23.8396 58.5802 22.7254L55.956 20.1012C54.8418 18.9869 52.9825 19.1911 52.1365 20.5204L48.1602 26.769" stroke="white" stroke-width="1.7234" stroke-miterlimit="10" stroke-linecap="round" stroke-linejoin="round"/>
<path d="M53.2041 25.4771L48.2197 30.4614" stroke="white" stroke-width="1.7234" stroke-miterlimit="10" stroke-linecap="round" stroke-linejoin="round"/>
</g>
</svg>
