<svg width="54" height="54" viewBox="0 0 54 54" fill="none" xmlns="http://www.w3.org/2000/svg">
<path d="M30.7514 14.0968L27.6818 17.1665L35.4123 24.84L11.2544 24.84L11.2544 29.1602L35.4123 29.1602L27.6818 36.8336L30.7514 39.9033L43.5978 27.0002L30.7514 14.0968Z" fill="#FF267E"/>
<path d="M27 -4.9949e-06C12.1074 -4.34393e-06 -1.83119e-06 12.1074 -1.18021e-06 27C-5.2923e-07 41.8926 12.1074 54 27 54C41.8926 54 54 41.8926 54 27C54 12.1074 41.8926 -5.64588e-06 27 -4.9949e-06ZM27 49.7368C14.4947 49.7368 4.26316 39.5053 4.26316 27C4.26316 14.4947 14.4947 4.26315 27 4.26315C39.5053 4.26315 49.7368 14.4947 49.7368 27C49.7368 39.5053 39.5053 49.7368 27 49.7368Z" fill="#FF267E"/>
</svg>
