<svg width="509" height="159" viewBox="0 0 509 159" fill="none" xmlns="http://www.w3.org/2000/svg">
<g opacity="0.5">
<g clip-path="url(#clip0_642_1989)">
<path d="M249.225 1.85841C249.225 0.979113 249.496 0.121143 250.001 -0.598583C250.506 -1.31831 251.221 -1.86479 252.048 -2.16357C252.875 -2.46235 253.774 -2.49888 254.622 -2.26821C255.471 -2.03754 256.228 -1.55089 256.79 -0.874536C257.351 -0.198185 257.691 0.634953 257.762 1.51136C257.834 2.38777 257.633 3.26483 257.187 4.02303C256.742 4.78122 256.074 5.38368 255.274 5.74832C254.474 6.11296 253.581 6.22205 252.716 6.06071C251.738 5.87124 250.857 5.34914 250.22 4.58309C249.584 3.81705 249.232 2.8543 249.225 1.85841Z" fill="#FF267E"/>
<path d="M-2.00174 -155.12L509 -155.12L509 158.837L-2.00177 158.837L-2.00174 -155.12ZM507.124 -153.244L-0.125736 -153.244L-0.125763 156.961L507.124 156.961L507.124 -153.244Z" fill="#FF267E"/>
<path d="M508.062 137.652L508.062 139.528C504.924 139.667 501.85 140.468 499.043 141.878C493.103 144.922 489.911 150.33 489.554 157.95L487.678 157.862C488.168 147.438 493.698 142.489 498.252 140.174C501.303 138.639 504.649 137.779 508.062 137.652Z" fill="#FF267E"/>
<path d="M-1.06379 137.652C2.34864 137.778 5.69385 138.638 8.74441 140.173C13.298 142.487 18.8289 147.436 19.3184 157.86L17.4423 157.949C17.0842 150.301 13.8711 144.885 7.89167 141.846C5.10138 140.453 2.04859 139.665 -1.06716 139.533L-1.06379 137.652Z" fill="#FF267E"/>
<path d="M252.561 157.722L254.437 157.722L254.437 -154.181L252.561 -154.181L252.561 157.722Z" fill="#FF267E"/>
<path d="M253.499 -46.3947C264.663 -46.395 275.482 -42.5242 284.112 -35.442C292.742 -28.3598 298.65 -18.5043 300.828 -7.5548C303.006 3.3947 301.32 14.7607 296.058 24.6066C290.795 34.4525 282.282 42.1691 271.967 46.4415C261.653 50.7139 250.177 51.2778 239.493 48.0371C228.81 44.7964 219.581 37.9516 213.378 28.6691C207.176 19.3865 204.384 8.24051 205.478 -2.86979C206.572 -13.9801 211.485 -24.3672 219.379 -32.2614C223.85 -36.7561 229.167 -40.3196 235.024 -42.7456C240.88 -45.1716 247.16 -46.4119 253.499 -46.3947ZM253.499 48.2354C279.071 48.2354 299.876 27.4286 299.876 1.8584C299.876 -23.7118 279.069 -44.5186 253.499 -44.5186C227.929 -44.5186 207.122 -23.7118 207.122 1.85839C207.122 27.4286 227.927 48.2354 253.499 48.2354Z" fill="#FF267E"/>
<path d="M473.625 -42.1003L508.062 -42.1003L508.062 -40.2243L475.501 -40.2243L475.501 43.9427L507.167 43.9427L507.167 45.8187L473.625 45.8187L473.625 -42.1003Z" fill="#FF267E"/>
<path d="M431.696 -83.2483L508.062 -83.2483L508.062 -81.3723L433.572 -81.3723L433.572 85.0891L508.062 85.0891L508.062 86.9651L431.696 86.9651L431.696 -83.2483Z" fill="#FF267E"/>
<path d="M432.062 -30.9943L433.229 -29.5258C423.706 -21.9672 418.248 -10.5285 418.248 1.85834C418.248 14.2452 423.706 25.6838 433.22 33.2391L432.054 34.7075C427.235 30.8629 423.332 25.9944 420.627 20.4549C417.821 14.6556 416.363 8.29657 416.363 1.85407C416.363 -4.58843 417.821 -10.9474 420.627 -16.7467C423.335 -22.2851 427.241 -27.1518 432.062 -30.9943Z" fill="#FF267E"/>
<path d="M-1.06196 -42.1003L33.375 -42.1003L33.375 45.8187L-0.166595 45.8187L-0.166595 43.9427L31.499 43.9427L31.499 -40.2243L-1.06196 -40.2243L-1.06196 -42.1003Z" fill="#FF267E"/>
<path d="M-1.06191 -83.2483L75.3042 -83.2483L75.3042 86.9651L-1.06193 86.9651L-1.06193 85.0891L73.4282 85.0891L73.4282 -81.3723L-1.06191 -81.3723L-1.06191 -83.2483Z" fill="#FF267E"/>
<path d="M74.9358 -30.9943C79.751 -27.149 83.6512 -22.2812 86.3539 -16.7433C89.16 -10.944 90.6177 -4.58501 90.6177 1.85749C90.6177 8.29999 89.16 14.659 86.3539 20.4583C83.6517 25.997 79.7515 30.8654 74.9357 34.7109L73.7692 33.2425C83.2926 25.6839 88.7501 14.2452 88.7501 1.85834C88.7501 -10.5285 83.2926 -21.9672 73.7777 -29.5224L74.9358 -30.9943Z" fill="#FF267E"/>
<path d="M456.968 -0.432104C455.703 -0.432104 454.677 0.593366 454.677 1.85835C454.677 3.12333 455.703 4.1488 456.968 4.1488C458.233 4.1488 459.258 3.12333 459.258 1.85835C459.258 0.593367 458.233 -0.432104 456.968 -0.432104Z" fill="#FF267E"/>
<path d="M50.0323 -0.432104C48.7673 -0.432104 47.7418 0.593366 47.7418 1.85835C47.7418 3.12333 48.7673 4.1488 50.0323 4.1488C51.2973 4.1488 52.3228 3.12333 52.3228 1.85835C52.3228 0.593367 51.2973 -0.432104 50.0323 -0.432104Z" fill="#FF267E"/>
</g>
</g>
<defs>
<clipPath id="clip0_642_1989">
<rect width="511" height="313.958" fill="white" transform="translate(509 158.837) rotate(-180)"/>
</clipPath>
</defs>
</svg>
