<svg width="111" height="131" viewBox="0 0 111 131" fill="none" xmlns="http://www.w3.org/2000/svg">
<g clip-path="url(#clip0_642_2197)">
<path d="M80.5562 83C82.644 83 84.6849 83.6191 86.4208 84.779C88.1568 85.9389 89.5098 87.5876 90.3087 89.5164C91.1077 91.4453 91.3168 93.5678 90.9095 95.6154C90.5022 97.6631 89.4967 99.544 88.0205 101.02C86.5442 102.497 84.6632 103.502 82.6156 103.909C80.5679 104.317 78.4455 104.108 76.5166 103.309C74.5878 102.51 72.9391 101.157 71.7792 99.4207C70.6192 97.6847 70.0002 95.6439 70.0002 93.5561C70.003 90.7573 71.116 88.0739 73.0951 86.0949C75.0741 84.1159 77.7574 83.0028 80.5562 83ZM80.5562 101.567C82.1407 101.567 83.6896 101.098 85.0071 100.217C86.3245 99.337 87.3514 98.0858 87.9578 96.6219C88.5642 95.158 88.7228 93.5472 88.4137 91.9931C88.1046 90.439 87.3415 89.0116 86.2211 87.8911C85.1007 86.7707 83.6732 86.0077 82.1192 85.6986C80.5651 85.3895 78.9542 85.5481 77.4903 86.1545C76.0264 86.7608 74.7752 87.7877 73.8949 89.1051C73.0146 90.4226 72.5449 91.9716 72.5449 93.5561C72.5477 95.68 73.3926 97.716 74.8944 99.2179C76.3962 100.72 78.4323 101.565 80.5562 101.567Z" fill="#FF267E"/>
</g>
<path fill-rule="evenodd" clip-rule="evenodd" d="M28.0967 109.319C27.8173 109.049 27.439 108.898 27.0446 108.898L27.0446 108.908C26.7503 108.908 26.4627 108.993 26.218 109.151C25.9734 109.31 25.7827 109.536 25.6701 109.8C25.5575 110.064 25.5281 110.354 25.5854 110.634C25.6427 110.914 25.7843 111.172 25.9923 111.374L34.6643 119.789L26.2058 127.997C25.9305 128.269 25.777 128.636 25.7788 129.017C25.7806 129.398 25.9376 129.763 26.2155 130.032C26.4934 130.302 26.8698 130.454 27.2626 130.455C27.6554 130.456 28.0328 130.307 28.3126 130.04L36.77 121.832L45.2374 130.049C45.3752 130.185 45.5393 130.294 45.7204 130.368C45.9015 130.442 46.0959 130.481 46.2925 130.481C46.489 130.482 46.6838 130.445 46.8656 130.373C47.0474 130.3 47.2126 130.194 47.3516 130.059C47.4907 129.924 47.6008 129.764 47.6758 129.588C47.7507 129.411 47.789 129.222 47.7883 129.032C47.7877 128.841 47.7481 128.652 47.6719 128.476C47.5957 128.3 47.4843 128.141 47.3442 128.007L38.8778 119.787L47.5578 111.364C47.7657 111.162 47.9073 110.904 47.9647 110.624C48.022 110.344 47.9924 110.054 47.8798 109.79C47.7672 109.526 47.5766 109.3 47.332 109.142C47.0874 108.983 46.7998 108.898 46.5055 108.898C46.1111 108.897 45.7326 109.049 45.4532 109.319L36.7727 117.743L28.0967 109.319Z" fill="#FF267E"/>
<path fill-rule="evenodd" clip-rule="evenodd" d="M2.54008 72.6509C2.2607 72.3807 1.88234 72.2292 1.48793 72.2295L1.48793 72.2391C1.19363 72.2393 0.906029 72.3242 0.661407 72.483C0.416788 72.6418 0.226051 72.8674 0.113462 73.1313C0.000873443 73.3951 -0.0285818 73.6855 0.0287626 73.9656C0.0861051 74.2457 0.227688 74.5031 0.435661 74.7051L9.10767 83.1206L0.649166 91.3289C0.373841 91.6008 0.220326 91.9672 0.222153 92.3484C0.223978 92.7296 0.380941 93.0946 0.658861 93.364C0.936781 93.6334 1.31311 93.7853 1.70592 93.7866C2.09872 93.7879 2.47617 93.6386 2.75601 93.3711L11.2133 85.1639L19.6808 93.3808C19.8185 93.5169 19.9827 93.6251 20.1638 93.6993C20.3448 93.7734 20.5393 93.8121 20.7358 93.813C20.9324 93.8139 21.1272 93.777 21.309 93.7044C21.4908 93.6319 21.6559 93.5252 21.795 93.3904C21.9341 93.2556 22.0442 93.0954 22.1191 92.9191C22.1941 92.7428 22.2324 92.5538 22.2317 92.363C22.231 92.1723 22.1915 91.9836 22.1153 91.8078C22.039 91.6319 21.9276 91.4725 21.7876 91.3387L13.3212 83.1185L22.0011 74.6953C22.2091 74.4933 22.3507 74.2359 22.408 73.9558C22.4654 73.6757 22.4358 73.3853 22.3232 73.1215C22.2106 72.8576 22.02 72.632 21.7754 72.4732C21.5307 72.3145 21.2431 72.2296 20.9488 72.2293C20.5544 72.229 20.1759 72.3806 19.8966 72.6508L11.216 81.0746L2.54008 72.6509Z" fill="#FF267E"/>
<path fill-rule="evenodd" clip-rule="evenodd" d="M95.2738 18.1798C95.186 17.5725 94.6224 17.1513 94.015 17.2391C93.1524 17.3638 92.2936 17.5053 91.4391 17.6634C90.8357 17.775 90.437 18.3547 90.5486 18.9582C90.6602 19.5616 91.2399 19.9603 91.8433 19.8487C92.6692 19.6959 93.4993 19.5591 94.333 19.4386C94.9404 19.3507 95.3616 18.7872 95.2738 18.1798ZM87.708 19.6001C87.5492 19.0073 86.94 18.6555 86.3472 18.8142C84.6631 19.2651 83 19.7816 81.3616 20.3617C80.7831 20.5666 80.4802 21.2016 80.685 21.78C80.8899 22.3585 81.5249 22.6614 82.1034 22.4566C83.6869 21.8959 85.2943 21.3967 86.922 20.9609C87.5148 20.8022 87.8667 20.1929 87.708 19.6001ZM77.9801 22.8594C77.7305 22.2988 77.0736 22.0467 76.513 22.2964C74.9228 23.0046 73.3611 23.7752 71.8315 24.6062C71.2923 24.8991 71.0927 25.5738 71.3856 26.113C71.6786 26.6522 72.3532 26.8519 72.8924 26.5589C74.3708 25.7557 75.8802 25.011 77.4172 24.3265C77.9778 24.0768 78.2298 23.42 77.9801 22.8594ZM68.8833 27.6029C68.5488 27.0883 67.8606 26.9423 67.3461 27.2768C65.8887 28.224 64.467 29.2296 63.0844 30.2917C62.5978 30.6656 62.5063 31.3631 62.8802 31.8498C63.254 32.3364 63.9516 32.4279 64.4383 32.054C65.7745 31.0275 67.1487 30.0556 68.5572 29.1401C69.0717 28.8056 69.2177 28.1174 68.8833 27.6029ZM60.6423 33.7135C60.2314 33.2577 59.5287 33.2214 59.073 33.6324C58.4276 34.2143 57.7928 34.8098 57.1689 35.4184L57.1591 35.428L57.1592 35.428C56.5353 36.0519 55.9253 36.6893 55.3293 37.3398C54.9147 37.7922 54.9454 38.4951 55.3979 38.9097C55.8504 39.3243 56.5533 39.2936 56.9678 38.8411C57.5406 38.216 58.1266 37.6036 58.7258 37.0043C59.3272 36.4176 59.9391 35.8437 60.5612 35.2828C61.017 34.8718 61.0533 34.1692 60.6423 33.7135ZM53.4851 41.1873C52.9988 40.813 52.3011 40.9037 51.9268 41.39C50.8534 42.7842 49.8373 44.2258 48.8797 45.7105C48.5471 46.2263 48.6955 46.914 49.2112 47.2466C49.727 47.5792 50.4147 47.4307 50.7473 46.915C51.6718 45.4815 52.6525 44.0904 53.6877 42.7456C54.0621 42.2593 53.9713 41.5617 53.4851 41.1873ZM47.7025 49.8095C47.1616 49.5196 46.4881 49.7231 46.1982 50.2639C45.3693 51.8106 44.5988 53.3953 43.8883 55.014C43.6417 55.5759 43.8972 56.2314 44.4592 56.4781C45.0211 56.7247 45.6766 56.4692 45.9232 55.9072C46.6107 54.3411 47.3557 52.8087 48.157 51.3138C48.4469 50.7729 48.2434 50.0994 47.7025 49.8095ZM43.3691 59.2456C42.79 59.0424 42.1559 59.3471 41.9527 59.9262C41.3728 61.5787 40.8521 63.2603 40.3918 64.9671C40.232 65.5596 40.5828 66.1695 41.1753 66.3293C41.7678 66.4891 42.3777 66.1383 42.5375 65.5458C42.9836 63.8914 43.4881 62.2623 44.0497 60.662C44.2528 60.0829 43.9481 59.4488 43.3691 59.2456ZM40.5059 69.2268C39.9034 69.1102 39.3205 69.5041 39.2039 70.1066C38.8716 71.8235 38.5985 73.5612 38.3858 75.3161C38.312 75.9253 38.7461 76.479 39.3553 76.5529C39.9645 76.6267 40.5182 76.1926 40.592 75.5834C40.7984 73.8802 41.0634 72.1942 41.3857 70.5289C41.5023 69.9264 41.1084 69.3434 40.5059 69.2268ZM39.1005 79.5159C38.4876 79.4844 37.9652 79.9557 37.9337 80.5685C37.8887 81.4438 37.8585 82.3223 37.8432 83.2037C37.8326 83.8173 38.3215 84.3233 38.935 84.3339C39.5486 84.3444 40.0546 83.8556 40.0652 83.242C40.08 82.3859 40.1094 81.5326 40.1531 80.6827C40.1846 80.0698 39.7133 79.5475 39.1005 79.5159Z" fill="#FF267E"/>
<path d="M100.625 23.1866L110.218 17.6316L100.617 12.1002L100.625 23.1866Z" fill="#FF267E"/>
<defs>
<clipPath id="clip0_642_2197">
<rect width="21.1121" height="21.1121" fill="white" transform="translate(91.1118 104.112) rotate(-180)"/>
</clipPath>
</defs>
</svg>
