<svg width="71" height="143" viewBox="0 0 71 143" fill="none" xmlns="http://www.w3.org/2000/svg">
<path fill-rule="evenodd" clip-rule="evenodd" d="M44.4927 20.2187C44.7446 20.4775 45.0918 20.629 45.4581 20.6398L45.4584 20.6309C45.7318 20.639 46.0013 20.5683 46.233 20.4277C46.4647 20.2871 46.6483 20.0829 46.7603 19.841C46.8723 19.5991 46.9079 19.3303 46.8625 19.0684C46.8172 18.8066 46.6929 18.5636 46.5055 18.37L38.6881 10.3083L46.7767 2.92278C47.0401 2.67802 47.1931 2.34196 47.2021 1.98785C47.2112 1.63373 47.0757 1.29024 46.8252 1.03217C46.5746 0.774104 46.2294 0.622384 45.8645 0.61006C45.4997 0.597736 45.1449 0.725802 44.8774 0.96637L36.7899 8.35079L29.1569 0.47925C29.0328 0.348993 28.8834 0.243822 28.7172 0.169815C28.5511 0.0958083 28.3716 0.054427 28.1891 0.0480514C28.0066 0.0416758 27.8246 0.0704399 27.6537 0.132676C27.4827 0.194913 27.3263 0.289395 27.1933 0.410672C27.0603 0.531948 26.9535 0.677608 26.8789 0.839272C26.8043 1.00094 26.7634 1.1754 26.7587 1.35258C26.7539 1.52977 26.7853 1.7062 26.8511 1.87166C26.917 2.03712 27.016 2.18835 27.1422 2.31663L34.7742 10.1912L26.4738 17.77C26.2749 17.9518 26.1362 18.1869 26.075 18.4454C26.0138 18.704 26.0331 18.9745 26.1302 19.2228C26.2273 19.4711 26.398 19.686 26.6208 19.8404C26.8435 19.9948 27.1082 20.0817 27.3816 20.0903C27.7479 20.1017 28.1038 19.9716 28.3709 19.7286L36.6719 12.1492L44.4927 20.2187Z" fill="#FF267E"/>
<path fill-rule="evenodd" clip-rule="evenodd" d="M67.1959 55.0003C67.4477 55.2592 67.7949 55.4107 68.1613 55.4215L68.1615 55.4126C68.4349 55.4207 68.7044 55.3499 68.9361 55.2093C69.1678 55.0688 69.3514 54.8646 69.4634 54.6227C69.5755 54.3808 69.611 54.1119 69.5657 53.8501C69.5203 53.5883 69.3961 53.3453 69.2086 53.1517L61.3912 45.09L69.4798 37.7045C69.7432 37.4597 69.8962 37.1236 69.9053 36.7695C69.9143 36.4154 69.7788 36.0719 69.5283 35.8138C69.2778 35.5558 68.9325 35.4041 68.5677 35.3917C68.2028 35.3794 67.848 35.5075 67.5805 35.748L59.493 43.1325L51.86 35.2609C51.7359 35.1307 51.5865 35.0255 51.4204 34.9515C51.2543 34.8775 51.0748 34.8361 50.8922 34.8297C50.7097 34.8234 50.5277 34.8521 50.3568 34.9144C50.1859 34.9766 50.0294 35.0711 49.8965 35.1923C49.7635 35.3136 49.6567 35.4593 49.5821 35.6209C49.5075 35.7826 49.4665 35.9571 49.4618 36.1343C49.457 36.3115 49.4884 36.4879 49.5543 36.6533C49.6201 36.8188 49.7191 36.97 49.8454 37.0983L57.4773 44.9729L49.177 52.5517C48.9781 52.7335 48.8393 52.9685 48.7781 53.2271C48.7169 53.4857 48.7362 53.7562 48.8333 54.0045C48.9305 54.2528 49.1011 54.4677 49.3239 54.6221C49.5466 54.7765 49.8114 54.8634 50.0847 54.872C50.4511 54.8834 50.8069 54.7533 51.074 54.5102L59.375 46.9309L67.1959 55.0003Z" fill="#FF267E"/>
<path fill-rule="evenodd" clip-rule="evenodd" d="M11.9915 128.597C12.3306 129.056 12.9772 129.152 13.4357 128.813C14.0869 128.332 14.7276 127.838 15.3575 127.333C15.8023 126.976 15.8736 126.326 15.5168 125.881C15.1599 125.436 14.51 125.365 14.0652 125.722C13.4564 126.21 12.8371 126.687 12.2077 127.153C11.7492 127.492 11.6524 128.139 11.9915 128.597ZM17.5595 124.106C17.9502 124.521 18.6037 124.541 19.0191 124.15C20.1992 123.04 21.3333 121.886 22.4192 120.69C22.8026 120.268 22.7712 119.615 22.349 119.232C21.9268 118.848 21.2737 118.88 20.8904 119.302C19.8408 120.457 18.7447 121.573 17.6042 122.646C17.1888 123.037 17.1688 123.69 17.5595 124.106ZM24.0882 117.158C24.5392 117.507 25.1877 117.424 25.5368 116.973C26.5268 115.694 27.4661 114.376 28.3525 113.023C28.665 112.546 28.5316 111.906 28.0546 111.593C27.5775 111.281 26.9375 111.414 26.625 111.891C25.7682 113.199 24.8604 114.473 23.9035 115.709C23.5545 116.16 23.6372 116.809 24.0882 117.158ZM29.4473 109.273C29.9475 109.547 30.5751 109.364 30.8491 108.863C31.6252 107.447 32.3466 105.998 33.0109 104.521C33.2448 104 33.0127 103.389 32.4926 103.155C31.9725 102.922 31.3612 103.154 31.1274 103.674C30.4852 105.102 29.7881 106.502 29.0379 107.871C28.7639 108.371 28.9472 108.999 29.4473 109.273ZM33.5044 100.645C34.0413 100.838 34.6324 100.558 34.8247 100.021C35.0969 99.2609 35.3546 98.4942 35.5974 97.7215L35.6012 97.7094L35.6011 97.7094C35.8373 96.9242 36.0562 96.1341 36.2579 95.3395C36.3981 94.7867 36.0638 94.2249 35.511 94.0846C34.9582 93.9443 34.3964 94.2787 34.2561 94.8315C34.0623 95.5951 33.8521 96.3542 33.6253 97.1085C33.3911 97.8532 33.1427 98.5922 32.8803 99.3251C32.6881 99.862 32.9675 100.453 33.5044 100.645ZM36.0747 91.3787C36.6374 91.4711 37.1686 91.0899 37.261 90.5272C37.5262 88.9137 37.7237 87.2866 37.8543 85.65C37.8996 85.0815 37.4755 84.5839 36.9071 84.5386C36.3386 84.4932 35.841 84.9173 35.7956 85.4858C35.6696 87.066 35.4789 88.6361 35.2232 90.1923C35.1307 90.755 35.5119 91.2862 36.0747 91.3787ZM37.0144 81.7769C37.5847 81.7762 38.0465 81.3134 38.0458 80.7431C38.0438 79.1124 37.9773 77.4762 37.8467 75.8386C37.8013 75.2702 37.3037 74.8461 36.7352 74.8914C36.1668 74.9367 35.7427 75.4343 35.788 76.0028C35.9144 77.5872 35.9787 79.1694 35.9806 80.7455C35.9813 81.3158 36.4441 81.7776 37.0144 81.7769ZM36.4099 72.1465C36.9733 72.058 37.3583 71.5296 37.2699 70.9662C37.0174 69.3584 36.7038 67.7529 36.3296 66.1532C36.1997 65.5979 35.6443 65.2531 35.089 65.383C34.5337 65.5129 34.1888 66.0683 34.3187 66.6236C34.6814 68.1741 34.9852 69.7295 35.2296 71.2865C35.3181 71.8499 35.8465 72.2349 36.4099 72.1465ZM34.3621 62.7167C34.9065 62.5471 35.2104 61.9682 35.0408 61.4237C34.5574 59.8721 34.0164 58.3296 33.4183 56.7996C33.2107 56.2685 32.6118 56.0062 32.0807 56.2138C31.5495 56.4214 31.2872 57.0203 31.4949 57.5515C32.0753 59.0364 32.6002 60.533 33.0691 62.038C33.2387 62.5825 33.8176 62.8863 34.3621 62.7167ZM30.9856 53.6763C31.5011 53.4324 31.7214 52.8169 31.4775 52.3013C31.1293 51.5651 30.7675 50.8327 30.3922 50.1046C30.1309 49.5977 29.5082 49.3985 29.0012 49.6598C28.4943 49.9211 28.2952 50.5439 28.5565 51.0508C28.9211 51.7581 29.2725 52.4694 29.6106 53.1843C29.8545 53.6999 30.4701 53.9201 30.9856 53.6763Z" fill="#FF267E"/>
<path d="M5.40869 126.853L0 135.621L10.2928 135.924L5.40869 126.853Z" fill="#FF267E"/>
</svg>
