<svg width="92" height="138" viewBox="0 0 92 138" fill="none" xmlns="http://www.w3.org/2000/svg">
<g clip-path="url(#clip0_642_2111)">
<path d="M41.687 138C39.9812 138 38.3136 137.452 36.8953 136.425C35.4769 135.399 34.3714 133.939 33.7186 132.232C33.0658 130.525 32.8949 128.646 33.2277 126.833C33.5605 125.021 34.382 123.356 35.5883 122.049C36.7945 120.742 38.3313 119.853 40.0044 119.492C41.6775 119.131 43.4116 119.316 44.9877 120.024C46.5637 120.731 47.9108 121.929 48.8585 123.465C49.8062 125.002 50.312 126.808 50.312 128.656C50.3097 131.134 49.4003 133.509 47.7833 135.26C46.1663 137.012 43.9738 137.997 41.687 138ZM41.687 121.565C40.3924 121.565 39.1269 121.981 38.0504 122.76C36.9739 123.539 36.1349 124.647 35.6394 125.942C35.144 127.238 35.0144 128.664 35.2669 130.04C35.5195 131.415 36.143 132.679 37.0585 133.671C37.9739 134.662 39.1402 135.338 40.41 135.611C41.6798 135.885 42.996 135.744 44.1921 135.208C45.3882 134.671 46.4105 133.762 47.1298 132.596C47.849 131.43 48.2329 130.059 48.2329 128.656C48.2306 126.776 47.5402 124.974 46.3131 123.645C45.086 122.315 43.4224 121.567 41.687 121.565Z" fill="#FF267E"/>
</g>
<path fill-rule="evenodd" clip-rule="evenodd" d="M89.9794 127.72C90.2016 127.942 90.5026 128.067 90.8164 128.067V128.059C91.0505 128.059 91.2793 127.989 91.4738 127.858C91.6684 127.727 91.8202 127.541 91.9097 127.324C91.9993 127.106 92.0227 126.867 91.9771 126.636C91.9315 126.406 91.8189 126.194 91.6534 126.027L84.7549 119.094L91.4835 112.331C91.7026 112.107 91.8247 111.805 91.8232 111.491C91.8218 111.177 91.6969 110.876 91.4758 110.654C91.2548 110.432 90.9554 110.307 90.6429 110.306C90.3304 110.305 90.0302 110.428 89.8076 110.648L83.0799 117.41L76.3441 110.64C76.2345 110.528 76.1039 110.439 75.9599 110.378C75.8158 110.317 75.6611 110.285 75.5048 110.284C75.3484 110.283 75.1935 110.314 75.0489 110.374C74.9042 110.433 74.7728 110.521 74.6622 110.632C74.5516 110.743 74.464 110.875 74.4044 111.021C74.3447 111.166 74.3143 111.322 74.3148 111.479C74.3154 111.636 74.3468 111.791 74.4075 111.936C74.4681 112.081 74.5567 112.212 74.6681 112.323L81.4031 119.095L74.4982 126.035C74.3328 126.202 74.2202 126.414 74.1745 126.645C74.1289 126.875 74.1525 127.115 74.242 127.332C74.3316 127.549 74.4832 127.735 74.6778 127.866C74.8724 127.997 75.1012 128.067 75.3353 128.067C75.6491 128.067 75.9501 127.942 76.1724 127.72L83.0777 120.779L89.9794 127.72Z" fill="#FF267E"/>
<path fill-rule="evenodd" clip-rule="evenodd" d="M66.3998 101.715C66.622 101.929 66.923 102.05 67.2367 102.049V102.042C67.4709 102.042 67.6996 101.974 67.8942 101.848C68.0888 101.722 68.2406 101.543 68.3301 101.333C68.4197 101.123 68.4431 100.893 68.3975 100.67C68.3519 100.448 68.2393 100.243 68.0738 100.083L61.1753 93.3967L67.904 86.8754C68.123 86.6594 68.2451 86.3683 68.2436 86.0654C68.2422 85.7626 68.1173 85.4726 67.8962 85.2586C67.6752 85.0446 67.3758 84.9239 67.0633 84.9228C66.7508 84.9218 66.4506 85.0404 66.228 85.253L59.5003 91.7733L52.7645 85.2452C52.6549 85.1371 52.5243 85.0511 52.3803 84.9922C52.2362 84.9332 52.0815 84.9025 51.9252 84.9018C51.7688 84.9011 51.6139 84.9304 51.4692 84.9881C51.3246 85.0457 51.1932 85.1305 51.0826 85.2376C50.972 85.3447 50.8844 85.4719 50.8248 85.612C50.7651 85.7521 50.7347 85.9022 50.7352 86.0538C50.7358 86.2053 50.7672 86.3553 50.8279 86.4949C50.8885 86.6346 50.9771 86.7613 51.0885 86.8676L57.8235 93.3984L50.9186 100.09C50.7532 100.251 50.6406 100.455 50.5949 100.678C50.5493 100.901 50.5729 101.131 50.6624 101.341C50.752 101.55 50.9036 101.73 51.0982 101.856C51.2928 101.982 51.5216 102.049 51.7557 102.05C52.0695 102.05 52.3705 101.929 52.5928 101.715L59.4981 95.0222L66.3998 101.715Z" fill="#FF267E"/>
<path fill-rule="evenodd" clip-rule="evenodd" d="M21.9198 19.0069C22.3862 19.4472 22.4035 20.1781 21.9584 20.6395C21.3526 21.2674 20.7593 21.9034 20.179 22.547C19.7498 23.0229 19.0119 23.0646 18.5307 22.6401C18.0496 22.2156 18.0075 21.4857 18.4366 21.0098C19.0345 20.3467 19.6455 19.6917 20.2694 19.045C20.7145 18.5836 21.4534 18.5666 21.9198 19.0069ZM16.6171 24.9135C17.1265 25.3044 17.2191 26.0298 16.8239 26.5336C15.7459 27.908 14.7232 29.3109 13.7574 30.7389C13.3989 31.269 12.6739 31.4112 12.138 31.0566C11.6021 30.702 11.4583 29.9848 11.8168 29.4548C12.8133 27.9815 13.868 26.5347 14.9792 25.118C15.3744 24.6141 16.1077 24.5225 16.6171 24.9135ZM10.5652 33.5725C11.1255 33.8879 11.3213 34.593 11.0024 35.1472C10.1338 36.6569 9.32659 38.1893 8.58256 39.7409C8.30625 40.3171 7.61004 40.5626 7.02753 40.2893C6.44502 40.016 6.19679 39.3273 6.4731 38.7511C7.24224 37.1472 8.07627 35.5639 8.97323 34.0049C9.29212 33.4507 10.0049 33.2571 10.5652 33.5725ZM5.84951 43.0089C6.45156 43.2371 6.75263 43.9048 6.52196 44.5004C5.89491 46.1193 5.33553 47.7542 4.84571 49.4015C4.66377 50.0133 4.01488 50.3634 3.39636 50.1834C2.77784 50.0034 2.42392 49.3616 2.60585 48.7498C3.11344 47.0428 3.69278 45.3496 4.34176 43.6741C4.57242 43.0786 5.24747 42.7808 5.84951 43.0089ZM2.67054 53.0532C3.30198 53.182 3.70833 53.7927 3.57814 54.4173C3.22533 56.11 2.94609 57.8113 2.74236 59.5173C2.66673 60.1506 2.08637 60.6034 1.4461 60.5286C0.805832 60.4538 0.348103 59.8797 0.423736 59.2464C0.635411 57.4739 0.925404 55.7074 1.29149 53.951C1.42168 53.3264 2.0391 52.9244 2.67054 53.0532ZM1.22593 63.4791C1.87038 63.4976 2.37768 64.0293 2.35901 64.6668C2.33381 65.5271 2.32819 66.3875 2.34238 67.2477M1.22593 63.4791C0.581478 63.4607 0.0439113 63.9625 0.0252411 64.5999L1.22593 63.4791ZM0.0252411 64.5999C-0.000970272 65.4949 -0.00682745 66.3903 0.0079502 67.2856L0.0252411 64.5999ZM2.34238 67.2479C2.35929 68.2591 2.40335 69.2696 2.47415 70.2784C2.5188 70.9146 2.0336 71.4661 1.39043 71.5103C0.747253 71.5545 0.18966 71.0745 0.145009 70.4383C0.0713744 69.3892 0.0255428 68.3381 0.00795424 67.2859L0.0079502 67.2856M1.86548 75.3622C2.50062 75.2526 3.10528 75.6731 3.21602 76.3014C3.56653 78.2898 4.01984 80.2656 4.57287 82.2227C4.74643 82.8369 4.38378 83.474 3.76286 83.6456C3.14193 83.8173 2.49788 83.4586 2.32432 82.8444C1.75065 80.8143 1.28004 78.7634 0.91598 76.6981C0.805233 76.0698 1.23034 75.4717 1.86548 75.3622ZM5.0014 87.3275C5.60274 87.0975 6.2787 87.3933 6.5112 87.9881C7.24619 89.8685 8.0745 91.7246 8.99319 93.5504C9.28045 94.1214 9.04543 94.8146 8.46824 95.0987C7.89105 95.3829 7.19028 95.1504 6.90301 94.5794C5.95253 92.6904 5.09495 90.7688 4.33355 88.8209C4.10105 88.2261 4.40006 87.5574 5.0014 87.3275ZM10.3731 98.4909C10.9223 98.1568 11.6413 98.3263 11.979 98.8695C13.0466 100.586 14.1974 102.269 15.4285 103.911C15.8125 104.423 15.704 105.147 15.1862 105.526C14.6683 105.906 13.9372 105.799 13.5531 105.287C12.2822 103.591 11.0936 101.854 9.99033 100.079C9.65257 99.5362 9.82394 98.825 10.3731 98.4909ZM17.6543 108.543C18.1381 108.121 18.8757 108.168 19.3019 108.646C19.9781 109.405 20.6727 110.154 21.3854 110.891C21.8311 111.352 21.8147 112.083 21.3489 112.523C20.883 112.964 20.144 112.948 19.6984 112.487C18.9636 111.728 18.2473 110.956 17.5499 110.173C17.1237 109.694 17.1705 108.964 17.6543 108.543Z" fill="#FF267E"/>
<path fill-rule="evenodd" clip-rule="evenodd" d="M39.0566 3.81766C38.0663 2.89384 36.7502 2.40032 35.3967 2.44524C34.3884 2.48111 33.4133 2.81498 32.5947 3.4047C31.7757 3.99463 31.15 4.81415 30.7966 5.75962C30.4433 6.7051 30.3781 7.73408 30.6095 8.71655C30.8408 9.69902 31.3582 10.5909 32.0962 11.2794C32.8343 11.9679 33.7599 12.4221 34.756 12.5847C35.7521 12.7473 36.7741 12.6108 37.6927 12.1927C38.6114 11.7746 39.3854 11.0935 39.9171 10.2355C40.4485 9.37786 40.7139 8.38196 40.6797 7.3736C40.6306 6.0202 40.0469 4.74148 39.0566 3.81766ZM35.3139 0.00422355C37.3141 -0.0626335 39.2592 0.666496 40.7226 2.03168C42.186 3.39687 43.0484 5.28669 43.1205 7.28677L43.1206 7.28912C43.1715 8.78053 42.7792 10.2536 41.9931 11.522C41.2071 12.7905 40.0627 13.7975 38.7045 14.4157C37.3464 15.0339 35.8354 15.2356 34.3626 14.9952C32.8899 14.7549 31.5214 14.0833 30.4302 13.0654C29.339 12.0474 28.5741 10.7289 28.2321 9.2763C27.8901 7.82373 27.9864 6.3024 28.5088 4.90456C29.0313 3.50672 29.9563 2.2951 31.1672 1.4229C32.378 0.550691 33.8202 0.0570289 35.3115 0.00430442L35.3139 0.00422355Z" fill="#FF267E"/>
<defs>
<clipPath id="clip0_642_2111">
<rect width="17.25" height="18.6875" fill="white" transform="translate(33.0625 119.312)"/>
</clipPath>
</defs>
</svg>
