<svg width="189" height="189" viewBox="0 0 189 189" fill="none" xmlns="http://www.w3.org/2000/svg">
<circle cx="115.772" cy="72.2903" r="70.7903" stroke="#FF267E" stroke-width="3"/>
<line x1="117.272" y1="6.55671e-08" x2="117.272" y2="144.581" stroke="#FF267E" stroke-width="3"/>
<rect x="111.192" y="67.0342" width="10.5122" height="10.5122" fill="#00003D" stroke="#FF267E" stroke-width="3"/>
<g clip-path="url(#clip0_642_2048)">
<path d="M150.813 95.3548L150.818 95.3611C151.53 96.1754 152.243 97.0177 152.961 97.8735C147.787 103.619 145.121 106.58 143.278 108.627C140.213 112.03 139.423 112.908 133.164 119.857C132.514 119.323 132.08 118.973 131.65 118.627C131.337 118.375 131.027 118.126 130.637 117.808C129.309 116.706 126.98 114.824 120.467 109.583L117.986 107.587L118.026 110.771L118.974 184.808L119.007 187.448H77.4737H35.9402L35.9736 184.808L36.9209 110.771L36.9617 107.587L34.4807 109.583C30.4373 112.836 28.0404 114.784 26.475 116.056C25.5042 116.845 24.8532 117.374 24.3276 117.794L24.3212 117.799L24.3148 117.804C23.9035 118.14 23.5852 118.402 23.2684 118.663C22.8463 119.01 22.4269 119.355 21.7943 119.869C15.5223 112.906 14.7351 112.032 11.6659 108.623C9.8248 106.578 7.16264 103.622 2.00304 97.8921C2.27966 97.5712 2.5575 97.247 2.83153 96.9272C3.30133 96.379 3.75992 95.8438 4.18193 95.3611L4.18741 95.3548C26.3384 69.7306 35.5608 61.3506 50.4626 55.1561C51.7202 54.6501 53.0643 54.1429 54.4324 53.6299C69.7402 57.9343 87.0047 57.4377 100.575 53.6278C101.961 54.1363 103.268 54.6455 104.537 55.1561C119.439 61.3506 128.662 69.7305 150.813 95.3548Z" fill="#00003D" stroke="#FF267E" stroke-width="3"/>
<path d="M35.4737 110.803L47.1579 101.809C47.1579 101.809 35.2632 114.287 35.2632 123.75L35.4737 110.803Z" fill="#00003D"/>
<path d="M119.579 110.803L107.895 101.809C107.895 101.809 119.789 114.287 119.789 123.75L119.579 110.803Z" fill="#00003D"/>
<path d="M100.631 52C87.1051 55.8994 69.684 56.4194 54.3683 52C52.5788 60.3188 65.1051 68.8975 77.4735 69.5734C89.8946 68.8975 102.421 60.3188 100.631 52Z" fill="#00003D"/>
<path d="M55.0525 62.0345C55.7367 62.7624 56.4736 63.4903 57.2631 64.1142C62.6841 68.6896 69.8946 71.2372 77.5262 71.2372C85.1578 71.2372 92.3683 68.6896 97.7894 64.1142C98.5788 63.4383 99.3157 62.7624 99.9999 62.0345C101.631 60.3188 103 58.3951 104 56.3154C104.421 55.4835 104.789 54.5996 105.105 53.7157C103.684 53.1438 102.21 52.5719 100.631 52C100.368 52.6239 95.7367 66.5059 77.5262 66.5059C59.3157 66.5059 54.6841 52.6239 54.4209 52C52.8946 52.5719 51.3683 53.1438 49.9473 53.7157C50.2631 54.5996 50.6315 55.4835 51.0525 56.3154C52.0525 58.3951 53.4209 60.3188 55.0525 62.0345Z" fill="#FF267E"/>
<path d="M34.4736 184.841V189H77.5263H120.579V184.841H77.5263H34.4736Z" fill="#FF267E"/>
<path d="M0 97.9093C15.2632 114.859 10.1579 109.192 21.6316 121.93C23.6316 120.318 24.0526 119.954 25.2632 118.966L3.05263 94.3738C2.05263 95.5177 1.05263 96.7135 0 97.9093Z" fill="#FF267E"/>
<path d="M151.947 94.3738L129.737 119.018C130.947 120.006 131.368 120.318 133.368 121.982C144.842 109.244 139.737 114.911 155 97.9613C153.947 96.7135 152.947 95.5177 151.947 94.3738Z" fill="#FF267E"/>
</g>
<path d="M90.6451 110.135C90.6451 103.205 85.5301 99.41 77.5551 99.41C68.7001 99.41 62.8701 104.745 62.9801 112.995H70.3501C70.3501 107.055 73.7601 105.02 77.1151 105.02C80.8001 105.02 83.0001 107.055 83.0001 110.52C83.0001 116.845 75.0801 123.5 62.2651 133.84V140H91.5801V133.62H71.1201C83.3851 125.425 90.6451 117.615 90.6451 110.135Z" fill="#E8E8E8"/>
<defs>
<clipPath id="clip0_642_2048">
<rect width="155" height="137" fill="white" transform="translate(0 52)"/>
</clipPath>
</defs>
</svg>
