<svg width="198" height="103" viewBox="0 0 198 103" fill="none" xmlns="http://www.w3.org/2000/svg">
<g clip-path="url(#clip0_642_2066)">
<path d="M182.298 94.4869C181.81 94.4301 181.342 94.2538 180.939 93.9738C180.535 93.6938 180.207 93.3188 179.985 92.8825C179.817 92.5542 167.779 69.4152 141.178 47.8428C116.646 27.9489 74.3058 5.31012 11.8696 10.5519C11.0824 10.6181 10.3004 10.3711 9.69557 9.86532C9.09078 9.35956 8.7128 8.63644 8.64472 7.85503C8.57663 7.07363 8.824 6.29798 9.3325 5.69867C9.84101 5.09936 10.569 4.72548 11.3562 4.65933C39.8358 2.28256 66.6974 5.28662 91.1986 13.589C110.836 20.2444 129.112 30.3538 145.151 43.433C172.699 65.8424 184.8 89.2377 185.301 90.2112C185.544 90.6881 185.653 91.2214 185.615 91.7541C185.577 92.2869 185.395 92.7992 185.087 93.2367C184.779 93.6743 184.357 94.0206 183.866 94.2388C183.376 94.4571 182.834 94.5391 182.3 94.4762L182.298 94.4869Z" fill="#FF267E"/>
<path d="M155.996 80.3452C165.557 86.0852 174.94 92.7672 182.315 101.17C184.016 103.108 187.904 102.502 188.044 99.5701C188.692 86.4541 188.036 73.3044 186.085 60.3116C185.475 56.2416 179.099 57.1862 179.712 61.2674C181.597 73.6952 182.244 86.2748 181.644 98.824L187.373 97.2239C179.617 88.3974 169.924 81.2892 159.875 75.2535C156.353 73.1328 152.437 78.2201 156 80.3565L155.996 80.3452Z" fill="#FF267E"/>
</g>
<defs>
<clipPath id="clip0_642_2066">
<rect width="189" height="81" fill="white" transform="translate(9.51416) rotate(6.74551)"/>
</clipPath>
</defs>
</svg>
