<svg width="197" height="188" viewBox="0 0 197 188" fill="none" xmlns="http://www.w3.org/2000/svg">
<path d="M104.271 1.55322L12.7076 1.55322L12.7076 120.863L104.271 120.863" stroke="#FF267E" stroke-width="3"/>
<path d="M104.271 29.059L38.6043 29.059L38.6043 93.8007L104.271 93.8007" stroke="#FF267E" stroke-width="3"/>
<rect x="28.4307" y="58.6058" width="2.8239" height="2.8239" transform="rotate(90 28.4307 58.6058)" fill="#FF267E"/>
<path d="M12.6195 84.7713C5.86249 79.4238 1.5 71.022 1.5 61.5612C1.5 52.1003 5.8625 43.6986 12.6195 38.3511L12.6195 84.7713Z" stroke="#FF267E" stroke-width="3"/>
<g clip-path="url(#clip0_642_2273)">
<path d="M192.649 88.131L192.654 88.1373C193.423 89.0291 194.194 89.9522 194.97 90.8896C189.473 97.0757 186.655 100.247 184.708 102.438C181.491 106.058 180.656 106.998 174.044 114.438C173.334 113.846 172.867 113.465 172.404 113.088C172.075 112.819 171.748 112.552 171.338 112.213C169.942 111.04 167.493 109.034 160.643 103.449L158.155 101.42L158.196 104.63L159.192 183.531L159.228 186.445H115.472H71.7165L71.7529 183.531L71.7529 183.531L72.7491 104.63L72.7897 101.42L70.3013 103.449C66.05 106.915 63.529 108.991 61.8825 110.347C60.8613 111.188 60.1765 111.752 59.6239 112.199L59.6175 112.204L59.6111 112.21C59.1791 112.567 58.8445 112.846 58.5115 113.124C58.0567 113.503 57.6048 113.88 56.9119 114.45C50.2807 106.99 49.4529 106.058 46.2236 102.423C44.2797 100.236 41.4656 97.0685 35.9917 90.9085C36.3029 90.543 36.6157 90.1731 36.924 89.8085C37.4177 89.2247 37.9 88.6543 38.346 88.1373L38.3514 88.131C61.6471 60.8217 71.3561 51.8782 87.0443 45.2696C88.3734 44.7277 89.794 44.1845 91.2392 43.6354C107.337 48.2271 125.499 47.6969 139.768 43.6332C141.233 44.1777 142.615 44.7229 143.956 45.2696C159.644 51.8782 169.353 60.8217 192.649 88.131Z" fill="#00003D" stroke="#FF267E" stroke-width="3"/>
<path d="M71.3044 104.666L83.5917 95.0808C83.5917 95.0808 71.083 108.379 71.083 118.463L71.3044 104.666Z" fill="#00003D"/>
<path d="M159.751 104.666L147.463 95.0808C147.463 95.0808 159.972 108.379 159.972 118.463L159.751 104.666Z" fill="#00003D"/>
<path d="M139.825 42C125.601 46.1556 107.281 46.7097 91.1745 42C89.2926 50.8653 102.465 60.0076 115.472 60.7279C128.534 60.0076 141.707 50.8653 139.825 42Z" fill="#00003D"/>
<path d="M91.8941 52.6937C92.6137 53.4694 93.3885 54.2452 94.2188 54.9101C99.9196 59.786 107.502 62.5009 115.528 62.5009C123.553 62.5009 131.136 59.786 136.837 54.9101C137.667 54.1898 138.442 53.4694 139.161 52.6937C140.877 50.8653 142.316 48.8152 143.368 46.5989C143.811 45.7123 144.198 44.7704 144.53 43.8285C143.036 43.219 141.486 42.6095 139.826 42C139.549 42.6649 134.678 57.4588 115.528 57.4588C96.3773 57.4588 91.5067 42.6649 91.23 42C89.6249 42.6095 88.0198 43.219 86.5254 43.8285C86.8575 44.7704 87.2449 45.7123 87.6877 46.5989C88.7393 48.8152 90.1784 50.8653 91.8941 52.6937Z" fill="#FF267E"/>
<path d="M70.2529 183.567V188H115.528H160.802V183.567H115.528H70.2529Z" fill="#FF267E"/>
<path d="M34 90.9252C50.0509 108.988 44.6822 102.949 56.748 116.524C58.8513 114.806 59.2941 114.418 60.5671 113.365L37.2102 87.1575C36.1586 88.3764 35.107 89.6508 34 90.9252Z" fill="#FF267E"/>
<path d="M193.79 87.1575L170.433 113.421C171.706 114.474 172.149 114.806 174.252 116.579C186.318 103.004 180.949 109.044 197 90.9806C195.893 89.6508 194.842 88.3764 193.79 87.1575Z" fill="#FF267E"/>
</g>
<path d="M121.925 121.78C121.925 125.52 118.57 127.995 114.445 127.995C109.495 127.995 106.91 124.475 106.36 120.46H99.21C99.705 127.775 105.095 133.715 114.225 133.715C122.64 133.715 129.625 129.645 129.625 121.56C129.625 117.545 127.315 113.585 123.19 111.88C126.215 110.23 128.58 106.985 128.58 103.135C128.58 95.6 121.705 92.41 115.05 92.41C105.92 92.41 100.42 97.25 99.54 105.17H106.745C107.13 101.045 110.045 98.13 114.61 98.13C117.91 98.13 120.935 100 120.935 103.465C120.935 107.205 117.36 109.295 111.64 109.295H110.32V115.235H111.915C117.58 115.235 121.925 117.105 121.925 121.78Z" fill="#E8E8E8"/>
<defs>
<clipPath id="clip0_642_2273">
<rect width="163" height="146" fill="white" transform="translate(34 42)"/>
</clipPath>
</defs>
</svg>
