<svg width="71" height="70" viewBox="0 0 71 70" fill="none" xmlns="http://www.w3.org/2000/svg">
<path d="M31.6254 48.2623L26.2105 34.2938C21.9731 32.9598 16.0086 31.7823 13.419 31.3904C12.2421 32.8026 8.63199 37.6685 7.21973 39.7086C7.61221 42.2982 8.86798 48.7329 12.7917 54.1479L24.1704 57.4439C25.5044 55.8745 29.0357 51.7937 31.6254 48.2623Z" fill="#FF267E"/>
<path d="M39.3158 24.8768L50.5375 32.0965C53.3625 30.37 57.7571 27.9373 59.7972 26.7605C59.5618 25.1122 59.0911 17.3436 58.7769 14.6756C52.7342 9.41781 46.7702 7.45594 45.2009 6.98523C43.239 8.08385 38.2166 10.909 36.7256 11.7722C37.5894 13.8906 38.688 17.8927 39.3158 24.8769L39.3158 24.8768Z" fill="#FF267E"/>
<path d="M46.7711 47.6345L33.2735 48.4195C30.6838 52.1078 26.8383 56.5024 25.3477 58.2288L30.2917 64.8206C32.2536 65.1342 38.3746 65.6838 47.0853 63.4866L53.0493 55.1684L46.7711 47.6345Z" fill="#FF267E"/>
<path d="M51.0087 33.4306L47.5557 46.4575L54.1474 54.305L61.6024 50.5384L61.5241 50.4601C61.6024 50.3818 66.3894 44.182 66.2329 34.0588C65.056 32.7248 62.0737 29.429 60.6609 27.8596C58.699 29.036 53.9121 31.7041 51.0087 33.4306Z" fill="#FF267E"/>
<path d="M12.007 19.3836C12.3995 21.738 13.4193 27.6236 13.7334 29.978C16.4803 30.4488 22.8367 31.6263 27.2311 33.1167L37.9037 24.406C37.4329 19.1482 36.5697 15.6953 36.0201 13.8116C35.7065 12.8701 35.4705 12.2423 35.314 11.7714C32.7243 11.0653 26.6033 9.25997 24.1706 8.55383C22.3658 9.65301 16.7156 13.4979 12.0068 19.3835L12.007 19.3836Z" fill="#FF267E"/>
<path d="M69.9997 28.1727L67.6453 32.9597C68.1161 43.0045 64.0352 49.5179 62.9365 51.0874L63.4073 56.0314C67.8806 50.0675 70.627 42.6908 70.627 34.6863C70.5492 32.4102 70.3921 30.2913 69.9996 28.1729L69.9997 28.1727Z" fill="#FF267E"/>
<path d="M60.0332 13.8904L59.955 13.9686L64.3494 14.6748C59.1699 7.14148 51.1659 1.72673 41.8271 0L45.3584 5.57199C46.6924 5.96448 53.2842 7.92637 60.0332 13.8902L60.0332 13.8904Z" fill="#FF267E"/>
<path d="M34.8429 66.547C31.9395 66.547 30.0559 66.2333 29.5069 66.1545L24.6416 68.3518C28.0157 69.4504 31.5475 70 35.3142 70C41.9059 70 48.1057 68.1953 53.4419 64.9777H47.0855C42.0626 66.1546 37.9034 66.547 34.8429 66.547Z" fill="#FF267E"/>
<path d="M5.80727 39.787L0 34.1368V34.6864C0 44.7312 4.15916 53.7558 10.908 60.1907C11.0651 58.6996 11.3788 56.1887 11.5359 54.7758C7.45503 49.0468 6.12096 42.3768 5.80734 39.7871L5.80727 39.787Z" fill="#FF267E"/>
<path d="M10.7511 18.5989C15.6952 12.4778 21.3455 8.55409 23.2285 7.37725L25.112 0.863281C15.0673 3.9238 6.90588 11.3004 2.8252 20.7959C5.17958 20.168 9.02442 19.1476 10.751 18.5986L10.7511 18.5989Z" fill="#FF267E"/>
</svg>
