<svg width="58" height="88" viewBox="0 0 58 88" fill="none" xmlns="http://www.w3.org/2000/svg">
<g clip-path="url(#clip0_642_2078)">
<path d="M29.4995 87.2636C27.6206 87.2636 25.7839 86.7065 24.2216 85.6626C22.6594 84.6187 21.4417 83.135 20.7227 81.3991C20.0037 79.6632 19.8155 77.7531 20.182 75.9103C20.5486 74.0674 21.4534 72.3747 22.782 71.0461C24.1106 69.7175 25.8034 68.8127 27.6462 68.4462C29.489 68.0796 31.3991 68.2677 33.135 68.9868C34.8709 69.7058 36.3547 70.9234 37.3985 72.4857C38.4424 74.048 38.9995 75.8847 38.9995 77.7636C38.997 80.2824 37.9953 82.6973 36.2143 84.4783C34.4332 86.2594 32.0183 87.2611 29.4995 87.2636ZM29.4995 70.5537C28.0736 70.5537 26.6796 70.9766 25.494 71.7688C24.3083 72.561 23.3841 73.6871 22.8384 75.0045C22.2927 76.3219 22.1499 77.7716 22.4281 79.1702C22.7063 80.5688 23.3931 81.8535 24.4014 82.8618C25.4097 83.8701 26.6944 84.5568 28.0929 84.835C29.4915 85.1132 30.9413 84.9704 32.2587 84.4247C33.5762 83.879 34.7022 82.9549 35.4944 81.7692C36.2866 80.5836 36.7094 79.1896 36.7094 77.7636C36.7069 75.8522 35.9465 74.0198 34.5949 72.6682C33.2433 71.3167 31.411 70.5562 29.4995 70.5537Z" fill="#FF267E" fill-opacity="0.5"/>
</g>
<path fill-rule="evenodd" clip-rule="evenodd" d="M55.7142 55.045C55.9656 55.2881 56.3061 55.4245 56.6611 55.4242V55.4156C56.9259 55.4154 57.1848 55.339 57.4049 55.1961C57.6251 55.0532 57.7967 54.8501 57.898 54.6127C57.9994 54.3752 58.0259 54.1139 57.9743 53.8618C57.9227 53.6097 57.7952 53.3781 57.6081 53.1963L49.8037 45.6228L57.4158 38.2358C57.6636 37.9911 57.8017 37.6613 57.8001 37.3182C57.7984 36.9752 57.6572 36.6467 57.4071 36.4042C57.157 36.1618 56.8183 36.0251 56.4648 36.0239C56.1113 36.0227 55.7716 36.1571 55.5197 36.3979L47.9086 43.7838L40.2883 36.3889C40.1643 36.2665 40.0166 36.1691 39.8536 36.1023C39.6907 36.0356 39.5157 36.0008 39.3388 36C39.1619 35.9992 38.9866 36.0324 38.823 36.0977C38.6594 36.163 38.5107 36.259 38.3856 36.3803C38.2604 36.5016 38.1613 36.6458 38.0939 36.8045C38.0264 36.9632 37.9919 37.1332 37.9926 37.3049C37.9932 37.4765 38.0288 37.6464 38.0974 37.8046C38.1659 37.9628 38.2662 38.1063 38.3922 38.2268L46.0117 45.6246L38.2 53.2052C38.0128 53.3871 37.8854 53.6187 37.8338 53.8708C37.7822 54.1229 37.8088 54.3842 37.9101 54.6216C38.0114 54.8591 38.183 55.0621 38.4031 55.205C38.6233 55.3479 38.8821 55.4243 39.147 55.4245C39.5019 55.4248 39.8425 55.2884 40.094 55.0453L47.9062 47.4641L55.7142 55.045Z" fill="#FF267E" fill-opacity="0.5"/>
<path fill-rule="evenodd" clip-rule="evenodd" d="M17.9061 19.045C18.1575 19.2881 18.498 19.4245 18.853 19.4242V19.4156C19.1178 19.4154 19.3767 19.339 19.5968 19.1961C19.8169 19.0532 19.9886 18.8501 20.0899 18.6127C20.1913 18.3752 20.2178 18.1139 20.1662 17.8618C20.1145 17.6097 19.9871 17.3781 19.8 17.1963L11.9956 9.62275L19.6077 2.23576C19.8555 1.99108 19.9936 1.66128 19.992 1.31823C19.9903 0.975183 19.8491 0.646679 19.599 0.404248C19.3489 0.161817 19.0102 0.0251177 18.6567 0.0239267C18.3032 0.0227356 17.9635 0.157145 17.7116 0.397885L10.1005 7.7838L2.48019 0.38892C2.35621 0.266488 2.20848 0.169082 2.04552 0.102333C1.88255 0.0355853 1.70757 0.000812344 1.53069 1.40609e-05C1.3538 -0.000784222 1.17848 0.032416 1.01488 0.0976904C0.851275 0.162965 0.702627 0.259027 0.577474 0.380335C0.45232 0.501643 0.35322 0.645784 0.285763 0.804468C0.218306 0.963152 0.18384 1.13323 0.184455 1.30489C0.185069 1.47654 0.220662 1.64639 0.289252 1.80462C0.357843 1.96284 0.458107 2.10632 0.584126 2.22678L8.20357 9.62463L0.391855 17.2052C0.204688 17.3871 0.0772703 17.6187 0.0256629 17.8708C-0.0259445 18.1229 0.000672954 18.3842 0.101998 18.6216C0.203324 18.8591 0.374869 19.0621 0.595017 19.205C0.815165 19.3479 1.07399 19.4243 1.33885 19.4245C1.69381 19.4248 2.03442 19.2884 2.28585 19.0453L10.0981 11.4641L17.9061 19.045Z" fill="#FF267E" fill-opacity="0.5"/>
<defs>
<clipPath id="clip0_642_2078">
<rect width="19" height="19" fill="white" transform="translate(20 68.2637)"/>
</clipPath>
</defs>
</svg>
